<svg width="36" height="36" viewBox="0 0 36 36" fill="none" xmlns="http://www.w3.org/2000/svg">
<rect width="36" height="36" rx="18" fill="#15803D" fill-opacity="0.12"/>
<path d="M11.2432 17.5576C11.2432 17.3434 11.3252 17.1566 11.4893 16.9971L15.9873 12.5059C16.0693 12.4238 16.1559 12.3623 16.2471 12.3213C16.3382 12.2803 16.4339 12.2598 16.5342 12.2598C16.7438 12.2598 16.9193 12.3281 17.0605 12.4648C17.2018 12.6016 17.2725 12.7725 17.2725 12.9775C17.2725 13.0869 17.252 13.1872 17.2109 13.2783C17.1699 13.3649 17.1152 13.4424 17.0469 13.5107L15.5156 15.0625L12.9727 17.3936L12.7266 16.9492L15.0986 16.8057H23.4043C23.6322 16.8057 23.8145 16.8763 23.9512 17.0176C24.0924 17.1543 24.1631 17.3343 24.1631 17.5576C24.1631 17.7764 24.0924 17.9564 23.9512 18.0977C23.8145 18.2344 23.6322 18.3027 23.4043 18.3027H15.0986L12.7266 18.166L12.9727 17.7285L15.5156 20.0527L17.0469 21.5977C17.1152 21.666 17.1699 21.7458 17.2109 21.8369C17.252 21.9281 17.2725 22.026 17.2725 22.1309C17.2725 22.3359 17.2018 22.5068 17.0605 22.6436C16.9193 22.7803 16.7438 22.8486 16.5342 22.8486C16.3337 22.8486 16.1536 22.7712 15.9941 22.6162L11.4893 18.1182C11.3252 17.9587 11.2432 17.7718 11.2432 17.5576Z" fill="#15803D"/>
</svg>
