<svg width="2" height="2" viewBox="0 0 2 2" fill="none" xmlns="http://www.w3.org/2000/svg">
<path opacity="0.9" d="M0.921239 1.36393C0.93964 1.36393 0.956271 1.35969 0.971133 1.35119C0.985995 1.3427 0.999087 1.32996 1.01041 1.31298L1.50935 0.526353C1.51572 0.515738 1.52173 0.504414 1.5274 0.492383C1.53306 0.480352 1.53589 0.468321 1.53589 0.45629C1.53589 0.43152 1.52669 0.412058 1.50829 0.397903C1.48989 0.383041 1.46936 0.37561 1.44672 0.37561C1.41558 0.37561 1.3901 0.391888 1.37028 0.424443L0.916993 1.15268L0.701494 0.874549C0.688047 0.856856 0.674955 0.844825 0.662216 0.838455C0.650185 0.832086 0.636384 0.828901 0.620814 0.828901C0.596752 0.828901 0.576582 0.837748 0.560305 0.85544C0.544027 0.872426 0.535889 0.892949 0.535889 0.917012C0.535889 0.929043 0.538012 0.941074 0.542258 0.953105C0.547212 0.964428 0.553582 0.975398 0.561366 0.986014L0.827821 1.31298C0.841975 1.33138 0.856483 1.34447 0.871345 1.35226C0.886207 1.36004 0.902838 1.36393 0.921239 1.36393Z" fill="#116631"/>
</svg>
