<svg width="48" height="48" viewBox="0 0 48 48" fill="none" xmlns="http://www.w3.org/2000/svg">
<path opacity="0.9" d="M6.90272 40.3146C7.78982 41.2017 9.16205 41.6452 11.0194 41.6452H15.5311C15.9469 41.6452 16.2935 41.7908 16.5707 42.0819L19.7726 45.2629C21.0893 46.5797 22.3715 47.2312 23.6189 47.2173C24.8664 47.2173 26.1416 46.5659 27.4446 45.2629L30.6464 42.0819C30.9375 41.7908 31.291 41.6452 31.7068 41.6452H36.1977C38.0551 41.6452 39.4273 41.2017 40.3144 40.3146C41.2015 39.4414 41.645 38.0691 41.645 36.1979V31.707C41.645 31.2912 41.7906 30.9377 42.0816 30.6466L45.2627 27.4448C46.5795 26.1418 47.231 24.8666 47.2171 23.6192C47.2171 22.3717 46.5657 21.0896 45.2627 19.7728L42.0816 16.5709C41.7906 16.2798 41.645 15.9333 41.645 15.5313V11.0196C41.645 9.17612 41.2015 7.81082 40.3144 6.92373C39.4412 6.02277 38.0689 5.57229 36.1977 5.57229H31.7068C31.291 5.57229 30.9375 5.43368 30.6464 5.15646L27.4446 1.97539C26.1416 0.644746 24.8664 -0.0136465 23.6189 0.000214344C22.3715 0.000214344 21.0893 0.658607 19.7726 1.97539L16.5707 5.15646C16.2935 5.43368 15.9469 5.57229 15.5311 5.57229H11.0194C9.16205 5.57229 7.78982 6.01584 6.90272 6.90294C6.01562 7.77617 5.57208 9.1484 5.57208 11.0196V15.5313C5.57208 15.9333 5.43347 16.2798 5.15625 16.5709L1.97518 19.7728C0.658392 21.0896 0 22.3717 0 23.6192C0 24.8666 0.658392 26.1418 1.97518 27.4448L5.15625 30.6466C5.43347 30.9377 5.57208 31.2912 5.57208 31.707V36.1979C5.57208 38.0553 6.01562 39.4275 6.90272 40.3146Z" fill="white"/>
</svg>
