<svg width="48" height="48" viewBox="0 0 48 48" fill="none" xmlns="http://www.w3.org/2000/svg">
<rect width="48" height="48" rx="24" fill="#E7E5E4"/>
<path opacity="0.9" d="M18.8145 34.918C17.8053 34.918 17.0469 34.6641 16.5391 34.1562C16.0378 33.6484 15.7871 32.8835 15.7871 31.8613V17.0469C15.7871 16.0312 16.0378 15.2663 16.5391 14.752C17.0469 14.2376 17.8053 13.9805 18.8145 13.9805H23.2969V21.1484C23.2969 22.3789 23.9121 22.9941 25.1426 22.9941H32.2129V31.8613C32.2129 32.877 31.959 33.6387 31.4512 34.1465C30.9499 34.6608 30.1947 34.918 29.1855 34.918H18.8145ZM25.1719 21.6562C24.8138 21.6562 24.6348 21.4805 24.6348 21.1289V14.0879C24.8366 14.1204 25.0417 14.2083 25.25 14.3516C25.4583 14.4883 25.6764 14.6738 25.9043 14.9082L31.2852 20.3867C31.5195 20.6276 31.7051 20.849 31.8418 21.0508C31.9785 21.2526 32.0632 21.4544 32.0957 21.6562H25.1719Z" fill="#78716C"/>
</svg>
