<svg width="35" height="45" viewBox="0 0 35 45" fill="none" xmlns="http://www.w3.org/2000/svg">
<path opacity="0.9" d="M11.9966 21.0824C13.2579 21.0824 14.2836 20.6943 15.0737 19.9181C15.8638 19.128 16.2588 18.1023 16.2588 16.841C16.2588 15.6212 15.9192 14.644 15.24 13.9094C14.5609 13.1748 13.6738 12.8075 12.5788 12.8075C12.0105 12.8075 11.5045 12.8976 11.061 13.0777C10.6174 13.2579 10.2363 13.549 9.91746 13.951H9.48085C9.56401 13.5767 9.72341 13.2094 9.95905 12.849C10.1947 12.4887 10.4927 12.1629 10.8531 11.8718C11.1857 11.5946 11.5461 11.359 11.9342 11.1649C12.3223 10.9709 12.7451 10.8254 13.2025 10.7283C13.5906 10.6452 13.854 10.5412 13.9926 10.4165C14.145 10.2778 14.2213 10.0907 14.2213 9.85509C14.2213 9.3561 13.9233 9.1066 13.3272 9.1066C12.6481 9.1066 11.9204 9.29372 11.1442 9.66797C10.3679 10.0422 9.68876 10.5412 9.1066 11.1649C8.52445 11.8025 8.08783 12.5233 7.79675 13.3272C7.50567 14.1173 7.36013 14.949 7.36013 15.8222C7.36013 17.4855 7.81061 18.7815 8.71157 19.7102C9.61252 20.625 10.7075 21.0824 11.9966 21.0824ZM23.3487 21.0616C24.61 21.0616 25.6357 20.6735 26.4258 19.8973C27.2297 19.1072 27.6317 18.0815 27.6317 16.8202C27.6317 15.6004 27.2921 14.6232 26.6129 13.8886C25.9337 13.154 25.0397 12.7867 23.9308 12.7867C23.3764 12.7867 22.8705 12.8768 22.4131 13.057C21.9695 13.2371 21.5883 13.5282 21.2695 13.9302H20.8537C20.9369 13.5698 21.0893 13.2164 21.3111 12.8698C21.5329 12.5094 21.817 12.1837 22.1636 11.8926C22.4962 11.5877 22.8635 11.3451 23.2655 11.1649C23.6675 10.9709 24.1041 10.8184 24.5754 10.7075C24.9635 10.6244 25.2268 10.5204 25.3654 10.3957C25.5179 10.2571 25.5941 10.0699 25.5941 9.8343C25.5941 9.33531 25.2892 9.08581 24.6793 9.08581C24.0001 9.08581 23.2655 9.27986 22.4754 9.66797C21.6992 10.0561 21.0339 10.5481 20.4795 11.1442C19.8973 11.7818 19.4607 12.5025 19.1696 13.3065C18.8785 14.0965 18.733 14.9282 18.733 15.8014C18.733 17.4647 19.1835 18.7607 20.0844 19.6894C20.9854 20.6042 22.0735 21.0616 23.3487 21.0616ZM9.18977 28.0891H25.8228C26.1832 28.0891 26.4882 27.9643 26.7376 27.7148C26.9871 27.4653 27.1119 27.1604 27.1119 26.8C27.1119 26.4396 26.9871 26.1416 26.7376 25.906C26.4882 25.6565 26.1832 25.5318 25.8228 25.5318H9.18977C8.81552 25.5318 8.50365 25.6565 8.25416 25.906C8.00466 26.1416 7.87991 26.4396 7.87991 26.8C7.87991 27.1604 8.00466 27.4653 8.25416 27.7148C8.50365 27.9643 8.81552 28.0891 9.18977 28.0891ZM9.18977 35.3453H17.1321C17.5063 35.3453 17.8112 35.2274 18.0469 34.9918C18.2964 34.7423 18.4211 34.4374 18.4211 34.077C18.4211 33.7166 18.2964 33.4117 18.0469 33.1622C17.8112 32.9127 17.5063 32.7879 17.1321 32.7879H9.18977C8.81552 32.7879 8.50365 32.9127 8.25416 33.1622C8.00466 33.4117 7.87991 33.7166 7.87991 34.077C7.87991 34.4374 8.00466 34.7423 8.25416 34.9918C8.50365 35.2274 8.81552 35.3453 9.18977 35.3453ZM0 38.0689V6.52848C0 4.36618 0.533644 2.73752 1.60093 1.64252C2.68208 0.547505 4.29688 0 6.44531 0H28.5257C30.6741 0 32.282 0.547505 33.3493 1.64252C34.4304 2.73752 34.971 4.36618 34.971 6.52848V38.0689C34.971 40.2451 34.4304 41.8737 33.3493 42.9549C32.282 44.036 30.6741 44.5766 28.5257 44.5766H6.44531C4.29688 44.5766 2.68208 44.036 1.60093 42.9549C0.533644 41.8737 0 40.2451 0 38.0689Z" fill="white"/>
</svg>
