<svg width="43" height="41" viewBox="0 0 43 41" fill="none" xmlns="http://www.w3.org/2000/svg">
<path opacity="0.9" d="M2.11697 40.5271C1.69252 40.4602 1.34768 40.2445 1.08243 39.8799C0.828707 39.5312 0.734234 39.1514 0.799004 38.7407L6.18148 4.60728C6.3283 3.67624 6.65818 2.96351 7.17115 2.46908C7.69996 1.96312 8.33834 1.60774 9.08627 1.40294C9.64326 1.25222 10.1869 1.1415 10.7173 1.07078C11.2498 0.986363 11.8637 0.963901 12.5591 1.00339C13.2703 1.03136 14.1599 1.12954 15.2279 1.29794C17.131 1.59805 18.8544 2.05924 20.398 2.68153C21.9554 3.30597 23.4482 3.98339 24.8766 4.71378C26.3049 5.44418 27.7693 6.12412 29.2697 6.75362C30.7723 7.36943 32.4272 7.81983 34.2345 8.10482C36.0007 8.38334 37.4063 8.45764 38.4511 8.32772C39.5096 8.19996 40.2922 8.17603 40.7988 8.25591C41.4012 8.35091 41.8841 8.5814 42.2473 8.94739C42.6106 9.31338 42.7479 9.77705 42.6594 10.3384L39.3723 31.184C39.2233 32.1288 38.8913 32.8552 38.3761 33.3633C37.8632 33.8577 37.2259 34.2063 36.4643 34.4089C35.9073 34.5596 35.3625 34.6772 34.83 34.7616C34.2997 34.8323 33.6857 34.8548 32.9882 34.829C32.2928 34.7895 31.4112 34.6855 30.3432 34.5171C28.5359 34.2321 26.881 33.7818 25.3784 33.1659C23.878 32.5364 22.4125 31.8633 20.982 31.1466C19.5537 30.4162 18.0608 29.7388 16.5035 29.1144C14.962 28.4784 13.2397 28.0104 11.3366 27.7103C9.83046 27.4728 8.58347 27.4165 7.59556 27.5413C6.6235 27.6546 5.99876 27.7456 5.72135 27.8141L3.92071 39.233C3.85378 39.6574 3.64596 39.9965 3.29724 40.2502C2.94853 40.5039 2.5551 40.5962 2.11697 40.5271ZM7.20137 18.4284C7.39226 18.1077 7.94814 17.8305 8.86901 17.5969C9.78989 17.3632 11.0513 17.3727 12.6532 17.6253C13.1461 17.703 13.5479 17.7804 13.8585 17.8574C14.1712 17.9208 14.5229 18.0043 14.9135 18.108L13.8285 24.9881C15.2467 25.338 16.5608 25.7697 17.7708 26.2833C18.9808 26.7968 20.1533 27.3255 21.2883 27.8693L22.3473 21.1535C23.1783 21.5792 23.9872 21.9664 24.7742 22.315C25.577 22.6521 26.383 22.9686 27.1923 23.2646C28.0174 23.5491 28.8811 23.8116 29.7834 24.0521L28.6952 30.9527C29.0447 31.0499 29.3953 31.1403 29.747 31.2238C30.1008 31.2936 30.4625 31.3577 30.8322 31.416C32.4341 31.6686 33.6956 31.6781 34.6164 31.4444C35.5373 31.2107 36.0932 30.9336 36.2841 30.6129L37.2265 24.6364C36.5117 24.7202 35.6859 24.7513 34.7491 24.7299C33.8123 24.7085 32.7826 24.6092 31.6599 24.4322C31.2902 24.3739 30.9558 24.3141 30.6568 24.2529C30.3714 24.1939 30.0803 24.127 29.7834 24.0521L30.8812 17.0898C31.1803 17.151 31.4851 17.2202 31.7957 17.2972C32.1221 17.3627 32.4428 17.4203 32.7577 17.4699C33.99 17.6643 35.0904 17.7606 36.0588 17.759C37.041 17.7595 37.7962 17.7312 38.3244 17.6742L39.3121 11.4102C38.5973 11.494 37.7715 11.5251 36.8347 11.5037C35.898 11.4823 34.8682 11.383 33.7455 11.206C33.4169 11.1542 33.0962 11.0966 32.7835 11.0332C32.4707 10.9699 32.1659 10.9008 31.869 10.8259L30.8812 17.0898C29.5178 16.7486 28.2369 16.3291 27.0384 15.8314C25.8537 15.3359 24.6559 14.7892 23.4452 14.1913L24.433 7.92736C23.2316 7.35905 22.0281 6.80443 20.8225 6.26351C19.6327 5.71105 18.3582 5.25049 16.9991 4.88182L16.0113 11.1458C15.6618 11.0486 15.2759 10.9596 14.8536 10.879C14.4472 10.7869 14.0797 10.7149 13.7511 10.6631C12.1492 10.4105 10.8878 10.401 9.96688 10.6346C9.04601 10.8683 8.49013 11.1455 8.29924 11.4662L7.20137 18.4284ZM14.9135 18.108L16.0113 11.1458C17.4137 11.5072 18.6961 11.962 19.8585 12.5102C21.0231 13.0446 22.2186 13.605 23.4452 14.1913L22.3473 21.1535C21.0408 20.5406 19.8247 19.977 18.699 19.4627C17.5733 18.9484 16.3115 18.4968 14.9135 18.108Z" fill="white"/>
</svg>
