<svg width="37" height="37" viewBox="0 0 37 37" fill="none" xmlns="http://www.w3.org/2000/svg">
<path d="M17.7292 37C7.95346 37 0 29.0465 0 19.2708C0 9.49508 7.95346 1.54163 17.7292 1.54163C27.5049 1.54163 35.4583 9.49508 35.4583 19.2708C35.4583 29.0465 27.5049 37 17.7292 37ZM17.7292 3.08329C8.80292 3.08329 1.54167 10.3445 1.54167 19.2708C1.54167 28.197 8.80292 35.4583 17.7292 35.4583C26.6554 35.4583 33.9167 28.197 33.9167 19.2708C33.9167 10.3445 26.6554 3.08329 17.7292 3.08329Z" fill="#001F2A"/>
<path d="M26.9791 20.0417H8.47915C8.05365 20.0417 7.70831 19.6963 7.70831 19.2708C7.70831 18.8453 8.05365 18.5 8.47915 18.5H26.9791C27.4046 18.5 27.75 18.8453 27.75 19.2708C27.75 19.6963 27.4046 20.0417 26.9791 20.0417Z" fill="#001F2A"/>
<path d="M17.7291 29.2917C17.3036 29.2917 16.9583 28.9463 16.9583 28.5208V10.0208C16.9583 9.59533 17.3036 9.25 17.7291 9.25C18.1546 9.25 18.5 9.59533 18.5 10.0208V28.5208C18.5 28.9463 18.1546 29.2917 17.7291 29.2917Z" fill="#001F2A"/>
</svg>
