<svg width="110" height="109" viewBox="0 0 110 109" fill="none" xmlns="http://www.w3.org/2000/svg">
<g opacity="0.6">
<g clip-path="url(#clip0_6_43)">
<path d="M0.548988 30.1037C9.1097 14.1507 25.9852 3.05556 41.7713 3.05556C66.7682 3.05556 87.8911 28.1974 87.8911 57.9601V64.5486H103.264C104.13 64.5486 104.911 65.0581 105.267 65.8444C105.623 66.6306 105.478 67.5574 104.903 68.2031L69.7638 107.734C69.3509 108.204 68.7536 108.472 68.1255 108.472C67.4974 108.472 66.9 108.204 66.4827 107.734L31.3438 68.2031C30.7684 67.5574 30.6279 66.635 30.9793 65.8444C31.335 65.0537 32.1169 64.5486 32.9822 64.5486H48.4082C48.4038 64.3378 48.395 64.1226 48.3906 63.9073C48.373 63.389 48.3598 62.8707 48.3598 62.3524C48.3598 44.0011 38.5034 25.0174 22.0057 25.0174C15.931 25.0174 8.24879 29.2911 3.68074 33.2618C3.25468 33.6308 2.6749 33.8548 2.19613 33.8021C1.12878 33.8636 -0.0439758 32.8358 -0.0439758 31.6059C-0.0439758 31.0261 0.180031 30.4946 0.548988 30.1037Z" fill="#E1DFFF"/>
</g>
<g clip-path="url(#clip1_6_43)">
<path d="M5.1323 27.0482C13.693 11.0951 30.5685 0 46.3546 0C71.3515 0 92.4744 25.1419 92.4744 54.9045V61.4931H107.848C108.713 61.4931 109.495 62.0026 109.851 62.7888C110.206 63.575 110.061 64.5018 109.486 65.1475L74.3471 104.679C73.9342 105.149 73.3369 105.417 72.7088 105.417C72.0807 105.417 71.4833 105.149 71.066 104.679L35.9271 65.1475C35.3517 64.5018 35.2112 63.5794 35.5626 62.7888C35.9184 61.9982 36.7002 61.4931 37.5655 61.4931H52.9915C52.9871 61.2822 52.9783 61.067 52.9739 60.8518C52.9563 60.3335 52.9432 59.8152 52.9432 59.2969C52.9432 40.9456 43.0867 21.9618 26.589 21.9618C20.5144 21.9618 12.8321 26.2356 8.26405 30.2063C7.838 30.5752 7.25821 30.7992 6.77944 30.7465C5.7121 30.808 4.53934 29.7802 4.53934 28.5503C4.53934 27.9706 4.76334 27.4391 5.1323 27.0482Z" fill="#181837"/>
</g>
</g>
<defs>
<clipPath id="clip0_6_43">
<rect width="105.417" height="105.417" fill="white" transform="matrix(-1 0 0 1 105.417 3.05556)"/>
</clipPath>
<clipPath id="clip1_6_43">
<rect width="105.417" height="105.417" fill="white" transform="matrix(-1 0 0 1 110 0)"/>
</clipPath>
</defs>
</svg>
