<svg width="24" height="24" viewBox="0 0 24 24" fill="none" xmlns="http://www.w3.org/2000/svg">
<g clip-path="url(#clip0_1833_181)">
<path d="M18.5 0H5.5C2.468 0 0 2.468 0 5.5V18.5C0 21.532 2.468 24 5.5 24H18.5C21.532 24 24 21.532 24 18.5V5.5C24 2.468 21.532 0 18.5 0ZM17 7.5V16.5C17 16.776 16.776 17 16.5 17H13.5C13.224 17 13 16.776 13 16.5V7.5C13 7.224 13.224 7 13.5 7H16.5C16.776 7 17 7.224 17 7.5ZM11 7.5V16.5C11 16.776 10.776 17 10.5 17H7.5C7.224 17 7 16.776 7 16.5V7.5C7 7.224 7.224 7 7.5 7H10.5C10.776 7 11 7.224 11 7.5Z" fill="#5B5B7D"/>
</g>
<defs>
<clipPath id="clip0_1833_181">
<rect width="24" height="24" fill="white"/>
</clipPath>
</defs>
</svg>
