<svg width="24" height="24" viewBox="0 0 24 24" fill="none" xmlns="http://www.w3.org/2000/svg">
<g clip-path="url(#clip0_1833_163)">
<path d="M18.5 0H5.5C2.467 0 0 2.468 0 5.5V18.5C0 21.532 2.467 24 5.5 24H18.5C21.533 24 24 21.532 24 18.5V5.5C24 2.468 21.533 0 18.5 0ZM17 12C17 12.17 16.914 12.328 16.771 12.421L9.771 16.921C9.688 16.974 9.594 17 9.5 17C9.417 17 9.335 16.979 9.26 16.938C9.1 16.852 9 16.683 9 16.5V7.5C9 7.317 9.1 7.148 9.26 7.062C9.421 6.973 9.616 6.98 9.77 7.08L16.77 11.58C16.914 11.672 17 11.83 17 12Z" fill="#5B5B7D"/>
</g>
<defs>
<clipPath id="clip0_1833_163">
<rect width="24" height="24" fill="white"/>
</clipPath>
</defs>
</svg>
