<svg width="24" height="24" viewBox="0 0 24 24" fill="none" xmlns="http://www.w3.org/2000/svg">
<g clip-path="url(#clip0_1833_94)">
<path d="M1.5 15.5C0.947 15.5 0.5 15.052 0.5 14.5V9.5C0.5 8.948 0.947 8.5 1.5 8.5C2.053 8.5 2.5 8.948 2.5 9.5V14.5C2.5 15.052 2.053 15.5 1.5 15.5Z" fill="#006782"/>
<path d="M4.5 19.5C3.947 19.5 3.5 19.052 3.5 18.5V5.5C3.5 4.948 3.947 4.5 4.5 4.5C5.053 4.5 5.5 4.948 5.5 5.5V18.5C5.5 19.052 5.053 19.5 4.5 19.5Z" fill="#006782"/>
<path d="M7.5 23.5C6.947 23.5 6.5 23.052 6.5 22.5V1.5C6.5 0.948 6.947 0.5 7.5 0.5C8.053 0.5 8.5 0.948 8.5 1.5V22.5C8.5 23.052 8.053 23.5 7.5 23.5Z" fill="#006782"/>
<path d="M10.5 22.5C9.947 22.5 9.5 22.052 9.5 21.5V2.5C9.5 1.948 9.947 1.5 10.5 1.5C11.053 1.5 11.5 1.948 11.5 2.5V21.5C11.5 22.052 11.053 22.5 10.5 22.5Z" fill="#006782"/>
<path d="M13.5 18.5C12.947 18.5 12.5 18.052 12.5 17.5V6.5C12.5 5.948 12.947 5.5 13.5 5.5C14.053 5.5 14.5 5.948 14.5 6.5V17.5C14.5 18.052 14.053 18.5 13.5 18.5Z" fill="#006782"/>
<path d="M16.5 22.5C15.947 22.5 15.5 22.052 15.5 21.5V2.5C15.5 1.948 15.947 1.5 16.5 1.5C17.053 1.5 17.5 1.948 17.5 2.5V21.5C17.5 22.052 17.053 22.5 16.5 22.5Z" fill="#006782"/>
<path d="M19.5 18.5C18.947 18.5 18.5 18.052 18.5 17.5V6.5C18.5 5.948 18.947 5.5 19.5 5.5C20.053 5.5 20.5 5.948 20.5 6.5V17.5C20.5 18.052 20.053 18.5 19.5 18.5Z" fill="#006782"/>
<path d="M22.5 15.5C21.947 15.5 21.5 15.052 21.5 14.5V9.5C21.5 8.948 21.947 8.5 22.5 8.5C23.053 8.5 23.5 8.948 23.5 9.5V14.5C23.5 15.052 23.053 15.5 22.5 15.5Z" fill="#006782"/>
</g>
<defs>
<clipPath id="clip0_1833_94">
<rect width="24" height="24" fill="white"/>
</clipPath>
</defs>
</svg>
