<svg xmlns="http://www.w3.org/2000/svg" width="261.612" height="241" viewBox="0 0 261.612 241">
  <g id="Group_7635" data-name="Group 7635" transform="translate(-49.195 -123)">
    <circle id="Ellipse_985" data-name="Ellipse 985" cx="104" cy="104" r="104" transform="translate(76 123)" fill="#f7f9fa"/>
    <g id="Group_7009" data-name="Group 7009" transform="translate(-19108.805 8356.421)">
      <g id="error_colored" data-name="error colored" transform="translate(18913.563 -8240.91)">
        <g id="background" transform="translate(244.437 70.461)">
          <g id="Group_6120" data-name="Group 6120" transform="translate(8.602 125.678)">
            <g id="Group_6119" data-name="Group 6119">
              <path id="Path_18055" data-name="Path 18055" d="M287.462,803.7h54.16a.3.3,0,0,0,0-.6h-54.16a.3.3,0,0,0,0,.6Z" transform="translate(-287.175 -803.1)" fill="#e8e8e8"/>
            </g>
          </g>
          <g id="Group_6122" data-name="Group 6122" transform="translate(70.168 126.645)">
            <g id="Group_6121" data-name="Group 6121">
              <path id="Path_18056" data-name="Path 18056" d="M593.362,808.5H741.633a.3.3,0,0,0,0-.6H593.362a.3.3,0,0,0,0,.6Z" transform="translate(-593.075 -807.9)" fill="#e8e8e8"/>
            </g>
          </g>
          <g id="Group_6170" data-name="Group 6170" transform="translate(238.102 127.369)">
            <g id="Group_6169" data-name="Group 6169">
              <path id="Path_18080" data-name="Path 18080" d="M1427.762,812.343c4.991.161,9.963.08,14.954-.242.383-.02.383-.624,0-.6q-7.457.483-14.954.241a.3.3,0,0,0,0,.6Z" transform="translate(-1427.475 -811.498)" fill="#e8e8e8"/>
            </g>
          </g>
          <g id="Group_6172" data-name="Group 6172" transform="translate(244.643 129.965)">
            <g id="Group_6171" data-name="Group 6171">
              <path id="Path_18081" data-name="Path 18081" d="M1460.262,825l8.091.06c2.677.02,5.6-.3,8.212.382a.3.3,0,0,0,.161-.584c-2.536-.664-5.354-.4-7.97-.4l-8.493-.06a.3.3,0,0,0,0,.6Z" transform="translate(-1459.975 -824.4)" fill="#e8e8e8"/>
            </g>
          </g>
          <g id="Group_6174" data-name="Group 6174" transform="translate(245.114 132.094)">
            <g id="Group_6173" data-name="Group 6173">
              <path id="Path_18082" data-name="Path 18082" d="M1462.532,835.566a18.174,18.174,0,0,0,4.045.282c.382-.02.382-.624,0-.6a16.748,16.748,0,0,1-3.884-.262c-.382-.06-.543.523-.161.584Z" transform="translate(-1462.314 -834.978)" fill="#e8e8e8"/>
            </g>
          </g>
          <g id="Group_6176" data-name="Group 6176" transform="translate(0 127.993)">
            <g id="Group_6175" data-name="Group 6175">
              <path id="Path_18083" data-name="Path 18083" d="M244.732,815.2l25.621,1.087c.382.02.382-.584,0-.6L244.732,814.6c-.4-.02-.382.584,0,.6Z" transform="translate(-244.437 -814.598)" fill="#e8e8e8"/>
            </g>
          </g>
          <g id="Group_6178" data-name="Group 6178" transform="translate(7.145 132.4)">
            <g id="Group_6177" data-name="Group 6177">
              <path id="Path_18084" data-name="Path 18084" d="M280.232,837.1q13.1.785,26.2.724a.3.3,0,0,0,0-.6q-13.1.06-26.2-.724c-.4-.02-.382.584,0,.6Z" transform="translate(-279.937 -836.498)" fill="#e8e8e8"/>
            </g>
          </g>
          <g id="Group_6180" data-name="Group 6180" transform="translate(17.578 137.291)">
            <g id="Group_6179" data-name="Group 6179">
              <path id="Path_18085" data-name="Path 18085" d="M332.062,861.4c3.482.02,6.964.181,10.425.5.382.04.382-.564,0-.6-3.462-.322-6.944-.483-10.425-.5a.3.3,0,0,0,0,.6Z" transform="translate(-331.775 -860.8)" fill="#e8e8e8"/>
            </g>
          </g>
          <g id="Group_6280" data-name="Group 6280" transform="translate(191.437 167.412)">
            <g id="Group_6279" data-name="Group 6279">
              <path id="Path_18135" data-name="Path 18135" d="M1196.276,1012.72c-.121,0-.242-.02-.342-.02a3.434,3.434,0,0,1,.282.221c-.06-.342.684-.805.946-.926a7.62,7.62,0,0,1,.845-.362,9.113,9.113,0,0,1,1.449-.4,8.84,8.84,0,0,1,1.932-.161c.221,0,.443.02.664.04.2.02.382.06.584.081.342-.02.4.161.221.523-.06.543-.06.5-.463.7a6.48,6.48,0,0,1-1.026.423,7.452,7.452,0,0,1-1.61.362,8.223,8.223,0,0,1-3.562-.382c-.362-.121-.523.463-.161.584a8.76,8.76,0,0,0,5.515.02c.8-.282,3.24-1.328,2.013-2.516a3.217,3.217,0,0,0-1.993-.443,9.813,9.813,0,0,0-2.757.282c-1.067.262-3.422.865-3.18,2.335a.28.28,0,0,0,.282.221c.121,0,.241.02.342.02.4.04.4-.563.02-.6Z" transform="translate(-1195.614 -1010.457)" fill="#e8e8e8"/>
            </g>
          </g>
          <g id="Group_6282" data-name="Group 6282" transform="translate(200.501 164.4)">
            <g id="Group_6281" data-name="Group 6281">
              <path id="Path_18136" data-name="Path 18136" d="M1241.185,996.842a2.523,2.523,0,0,1,2.6-.6c.885.3-.342.745-.725.745a2.071,2.071,0,0,1-1.348-.463c-.3-.241-.6.282-.3.523a2.658,2.658,0,0,0,2.314.443c.483-.141,1.349-.564,1.067-1.208-.262-.644-1.328-.805-1.912-.785a3.183,3.183,0,0,0-2.133.926c-.282.262.161.684.443.423Z" transform="translate(-1240.652 -995.492)" fill="#e8e8e8"/>
            </g>
          </g>
          <g id="Group_6284" data-name="Group 6284" transform="translate(182.065 171.085)">
            <g id="Group_6283" data-name="Group 6283">
              <path id="Path_18137" data-name="Path 18137" d="M1149.623,1029.873c.423-.865,1.852-.584,2.556-.4a2.642,2.642,0,0,1,.946.322c.584.423,0,.564-.382.724a2.742,2.742,0,0,1-3.1-.765c-.262-.3-.684.141-.423.423a3.28,3.28,0,0,0,2.556,1.147c.7-.02,2.073-.342,2.355-1.107.342-.946-1.59-1.268-2.133-1.389-.966-.2-2.415-.262-2.918.765-.161.322.362.624.543.282Z" transform="translate(-1149.049 -1028.707)" fill="#e8e8e8"/>
            </g>
          </g>
          <g id="Group_6286" data-name="Group 6286" transform="translate(180.461 160.526)">
            <g id="Group_6285" data-name="Group 6285">
              <path id="Path_18138" data-name="Path 18138" d="M1141.99,977.9a33.388,33.388,0,0,1,3.985-.845,17.078,17.078,0,0,1,2.013-.221c.262,0,1.047-.04,1.228.121.06.2.1.4.161.6a1.254,1.254,0,0,1-.443.2,17.083,17.083,0,0,1-3.019.443c-.543.1-1.087.262-1.63.382a5.775,5.775,0,0,1-1.167.141l-.5-.06a1.026,1.026,0,0,1-.805-.523c.382-.02.382-.624,0-.6-.463.02-.865.322-.684.845.221.6,1.167.865,1.711.946a12,12,0,0,0,3.26-.523,18.131,18.131,0,0,0,2.938-.4c.483-.161,1.288-.523,1.389-1.087.121-.7-.865-.926-1.369-1.006a10.7,10.7,0,0,0-3.2.161,37.915,37.915,0,0,0-3.985.845.3.3,0,1,0,.121.584Z" transform="translate(-1141.08 -976.243)" fill="#e8e8e8"/>
            </g>
          </g>
          <g id="Group_6356" data-name="Group 6356" transform="translate(104.946 176.308)">
            <g id="Group_6355" data-name="Group 6355">
              <path id="Path_18173" data-name="Path 18173" d="M766.162,1056.378a353.875,353.875,0,0,1,36.67-1.006.3.3,0,0,0,0-.6,348.32,348.32,0,0,0-36.67,1.006c-.382.04-.382.644,0,.6Z" transform="translate(-765.875 -1054.659)" fill="#e8e8e8"/>
            </g>
          </g>
          <g id="Group_6358" data-name="Group 6358" transform="translate(123.105 172.271)">
            <g id="Group_6357" data-name="Group 6357">
              <path id="Path_18174" data-name="Path 18174" d="M856.4,1035.465c6.159-.08,12.337-.181,18.5-.262a.3.3,0,0,0,0-.6c-6.159.08-12.337.181-18.5.262-.4.02-.4.624,0,.6Z" transform="translate(-856.1 -1034.6)" fill="#e8e8e8"/>
            </g>
          </g>
        </g>
      </g>
    </g>
    <g id="Group_3721" data-name="Group 3721" transform="translate(0 56)">
      <path id="Path_18625" data-name="Path 18625" d="M66,0c36.451,0,66,5.6,66,12.5S102.451,25,66,25,0,19.4,0,12.5,29.549,0,66,0Z" transform="translate(114 265)" fill="#f0f5f7"/>
      <g id="Union_2" data-name="Union 2" transform="translate(146.689 151.999)" fill="#e6e6e6">
        <path d="M 74.810546875 106.534423828125 L 0.5000020265579224 106.534423828125 L 0.5000020265579224 34.15869903564453 C 0.5000020265579224 29.6214542388916 1.479787707328796 25.21946907043457 3.412144899368286 21.07505416870117 C 5.280402183532715 17.06808280944824 7.955987930297852 13.46846866607666 11.36454486846924 10.37621212005615 C 14.7767448425293 7.280640602111816 18.75102996826172 4.849911689758301 23.17697334289551 3.151554822921753 C 27.76213073730469 1.392111897468567 32.63348770141602 0.499997615814209 37.65574645996094 0.499997615814209 C 42.67755889892578 0.499997615814209 47.54860305786133 1.392111897468567 52.13357162475586 3.151554822921753 C 56.55937194824219 4.849925994873047 60.53357315063477 7.280640602111816 63.94575881958008 10.37621212005615 C 67.35436248779297 13.46849727630615 70.02997589111328 17.06811141967773 71.89828491210938 21.07505416870117 C 73.83071899414062 25.21951103210449 74.810546875 29.62149810791016 74.810546875 34.15869903564453 L 74.810546875 106.534423828125 Z" stroke="none"/>
        <path d="M 74.310546875 106.034423828125 L 74.310546875 34.15869903564453 C 74.310546875 29.69503974914551 73.34647369384766 25.36415481567383 71.44512939453125 21.28635406494141 C 69.60507202148438 17.34001159667969 66.96888732910156 13.79389762878418 63.60981750488281 10.74652576446533 C 60.24364471435547 7.692726135253906 56.32221603393555 5.294468879699707 51.95442962646484 3.618369102478027 C 47.42686080932617 1.880940437316895 42.61607360839844 0.999997615814209 37.65574645996094 0.999997615814209 C 32.6949577331543 0.999997615814209 27.88387298583984 1.880940437316895 23.35610198974609 3.618369102478027 C 18.98818778991699 5.294454574584961 15.06667327880859 7.69271183013916 11.70050239562988 10.74652576446533 C 8.341459274291992 13.79386901855469 5.705316066741943 17.33996963500977 3.865302085876465 21.28634071350098 C 1.964030623435974 25.36411285400391 1.000002026557922 29.69499778747559 1.000002026557922 34.15869903564453 L 1.000002026557922 106.034423828125 L 74.310546875 106.034423828125 M 75.310546875 107.034423828125 L 2.00892850443779e-06 107.034423828125 L 2.00892850443779e-06 34.15869903564453 C 2.00892850443779e-06 15.29614067077637 16.85765838623047 -2.371651817156817e-06 37.65574645996094 -2.371651817156817e-06 C 58.45194625854492 -2.371651817156817e-06 75.310546875 15.29614067077637 75.310546875 34.15869903564453 L 75.310546875 107.034423828125 Z" stroke="none" fill="#1b1b1b"/>
      </g>
      <g id="Union_1" data-name="Union 1" transform="translate(139.689 151.999)" fill="#fff">
        <path d="M 74.810546875 106.534423828125 L 0.5000020265579224 106.534423828125 L 0.5000020265579224 34.15869903564453 C 0.5000020265579224 29.6214542388916 1.479787707328796 25.21946907043457 3.412144899368286 21.07505416870117 C 5.280402183532715 17.06808280944824 7.955987930297852 13.46846866607666 11.36454486846924 10.37621212005615 C 14.7767448425293 7.280640602111816 18.75102996826172 4.849911689758301 23.17697334289551 3.151554822921753 C 27.76213073730469 1.392111897468567 32.63348770141602 0.499997615814209 37.65574645996094 0.499997615814209 C 42.67755889892578 0.499997615814209 47.54860305786133 1.392111897468567 52.13357162475586 3.151554822921753 C 56.55937194824219 4.849925994873047 60.53357315063477 7.280640602111816 63.94575881958008 10.37621212005615 C 67.35436248779297 13.46849727630615 70.02997589111328 17.06811141967773 71.89828491210938 21.07505416870117 C 73.83071899414062 25.21951103210449 74.810546875 29.62149810791016 74.810546875 34.15869903564453 L 74.810546875 106.534423828125 Z" stroke="none"/>
        <path d="M 74.310546875 106.034423828125 L 74.310546875 34.15869903564453 C 74.310546875 29.69503974914551 73.34647369384766 25.36415481567383 71.44512939453125 21.28635406494141 C 69.60507202148438 17.34001159667969 66.96888732910156 13.79389762878418 63.60981750488281 10.74652576446533 C 60.24364471435547 7.692726135253906 56.32221603393555 5.294468879699707 51.95442962646484 3.618369102478027 C 47.42686080932617 1.880940437316895 42.61607360839844 0.999997615814209 37.65574645996094 0.999997615814209 C 32.6949577331543 0.999997615814209 27.88387298583984 1.880940437316895 23.35610198974609 3.618369102478027 C 18.98818778991699 5.294454574584961 15.06667327880859 7.69271183013916 11.70050239562988 10.74652576446533 C 8.341459274291992 13.79386901855469 5.705316066741943 17.33996963500977 3.865302085876465 21.28634071350098 C 1.964030623435974 25.36411285400391 1.000002026557922 29.69499778747559 1.000002026557922 34.15869903564453 L 1.000002026557922 106.034423828125 L 74.310546875 106.034423828125 M 75.310546875 107.034423828125 L 2.00892850443779e-06 107.034423828125 L 2.00892850443779e-06 34.15869903564453 C 2.00892850443779e-06 15.29614067077637 16.85765838623047 -2.371651817156817e-06 37.65574645996094 -2.371651817156817e-06 C 58.45194625854492 -2.371651817156817e-06 75.310546875 15.29614067077637 75.310546875 34.15869903564453 L 75.310546875 107.034423828125 Z" stroke="none" fill="#1b1b1b"/>
      </g>
      <path id="Path_851" data-name="Path 851" d="M47.148,30.083l2.844-2.843a30.929,30.929,0,0,0-43.689,0l2.844,2.843A26.9,26.9,0,0,1,47.148,30.083Z" transform="translate(150.853 171.777)" fill="#9b9b9b"/>
      <path id="Path_852" data-name="Path 852" d="M49.281,41.278a22.105,22.105,0,0,0-31.223,0L20.9,44.122a18.078,18.078,0,0,1,25.537,0Z" transform="translate(145.33 163.971)" fill="#9b9b9b"/>
      <path id="Path_853" data-name="Path 853" d="M48.562,55.46a13.17,13.17,0,0,0-18.624,0L32.782,58.3a9.146,9.146,0,0,1,12.937,0Z" transform="translate(139.75 156.089)" fill="#9b9b9b"/>
      <circle id="Ellipse_608" data-name="Ellipse 608" cx="2.579" cy="2.579" r="2.579" transform="translate(176.422 215.891)" fill="#9e45ec"/>
      <path id="Path_855" data-name="Path 855" d="M0,0H10.018V25H0Z" transform="translate(173.99 190)" fill="#fff"/>
      <rect id="Rectangle_1919" data-name="Rectangle 1919" width="4" height="24.645" transform="translate(177 189.984)" fill="#9e45ec"/>
    </g>
    <g id="Rectangle_2645" data-name="Rectangle 2645" transform="translate(132 318)" fill="#fff" stroke="#1b1b1b" stroke-width="1">
      <rect width="97" height="14" rx="4" stroke="none"/>
      <rect x="0.5" y="0.5" width="96" height="13" rx="3.5" fill="none"/>
    </g>
    <g id="Rectangle_2644" data-name="Rectangle 2644" transform="translate(130 312)" fill="#fff" stroke="#1b1b1b" stroke-width="1">
      <rect width="100" height="14" rx="3" stroke="none"/>
      <rect x="0.5" y="0.5" width="99" height="13" rx="2.5" fill="none"/>
    </g>
    <path id="Rectangle_2646" data-name="Rectangle 2646" d="M0,0H98a0,0,0,0,1,0,0V1a2,2,0,0,1-2,2H2A2,2,0,0,1,0,1V0A0,0,0,0,1,0,0Z" transform="translate(131 322)" fill="#bfbfbf"/>
    <path id="Rectangle_2647" data-name="Rectangle 2647" d="M2,0H96a2,2,0,0,1,2,2V9a0,0,0,0,1,0,0H0A0,0,0,0,1,0,9V2A2,2,0,0,1,2,0Z" transform="translate(131 313)" fill="#e6e6e6"/>
    <path id="Rectangle_2649" data-name="Rectangle 2649" d="M0,0H95a0,0,0,0,1,0,0V2a3,3,0,0,1-3,3H3A3,3,0,0,1,0,2V0A0,0,0,0,1,0,0Z" transform="translate(133 326)" fill="#bfbfbf"/>
  </g>
</svg>
