<svg width="231" height="32" viewBox="0 0 231 32" fill="none" xmlns="http://www.w3.org/2000/svg">
<g clip-path="url(#clip0_1_382)">
<path d="M28.4261 16.2896C28.4261 19.4249 25.9733 21.7353 22.9632 21.7353C19.953 21.7353 17.5002 19.4249 17.5002 16.2896C17.5002 13.1321 19.953 10.8438 22.9632 10.8438C25.9733 10.8438 28.4261 13.1321 28.4261 16.2896ZM26.0347 16.2896C26.0347 14.3303 24.6131 12.9897 22.9632 12.9897C21.3132 12.9897 19.8916 14.3303 19.8916 16.2896C19.8916 18.2292 21.3132 19.5894 22.9632 19.5894C24.6131 19.5894 26.0347 18.2268 26.0347 16.2896Z" fill="black" fill-opacity="0.2"/>
<path d="M40.2056 16.2896C40.2056 19.4249 37.7528 21.7353 34.7427 21.7353C31.7326 21.7353 29.2798 19.4249 29.2798 16.2896C29.2798 13.1346 31.7326 10.8438 34.7427 10.8438C37.7528 10.8438 40.2056 13.1321 40.2056 16.2896ZM37.8142 16.2896C37.8142 14.3303 36.3926 12.9897 34.7427 12.9897C33.0928 12.9897 31.6712 14.3303 31.6712 16.2896C31.6712 18.2292 33.0928 19.5894 34.7427 19.5894C36.3926 19.5894 37.8142 18.2268 37.8142 16.2896Z" fill="black" fill-opacity="0.2"/>
<path d="M51.5029 11.1729V20.9496C51.5029 24.9713 49.1312 26.6139 46.3273 26.6139C43.6879 26.6139 42.0993 24.8486 41.5003 23.4049L43.5823 22.5382C43.9531 23.4245 44.8615 24.4704 46.3248 24.4704C48.1196 24.4704 49.2318 23.3631 49.2318 21.2786V20.4954H49.1483C48.6131 21.1559 47.5819 21.7328 46.2806 21.7328C43.5578 21.7328 41.0632 19.3611 41.0632 16.3092C41.0632 13.2353 43.5578 10.8438 46.2806 10.8438C47.5794 10.8438 48.6106 11.4208 49.1483 12.0616H49.2318V11.1753H51.5029V11.1729ZM49.4012 16.3092C49.4012 14.3917 48.1221 12.9897 46.4942 12.9897C44.8443 12.9897 43.462 14.3917 43.462 16.3092C43.462 18.2071 44.8443 19.5894 46.4942 19.5894C48.1221 19.5894 49.4012 18.2071 49.4012 16.3092Z" fill="black" fill-opacity="0.2"/>
<path d="M55.2429 5.44228V21.4014H52.9104V5.44228H55.2429Z" fill="black" fill-opacity="0.2"/>
<path d="M64.3354 18.0817L66.1915 19.3192C65.5924 20.2055 64.1488 21.7327 61.6542 21.7327C58.5606 21.7327 56.2502 19.3413 56.2502 16.2869C56.2502 13.0485 58.5803 10.8412 61.3866 10.8412C64.2126 10.8412 65.5949 13.0902 66.0467 14.3056L66.2946 14.9243L59.0148 17.9393C59.5722 19.0319 60.4389 19.5892 61.6542 19.5892C62.872 19.5892 63.7166 18.9902 64.3354 18.0817ZM58.622 16.1224L63.4883 14.1018C63.2207 13.4217 62.4154 12.9478 61.4676 12.9478C60.2523 12.9478 58.5606 14.0207 58.622 16.1224Z" fill="black" fill-opacity="0.2"/>
<path d="M8.66625 14.8728V12.5625H16.4518C16.5279 12.9651 16.5672 13.4414 16.5672 13.957C16.5672 15.6904 16.0934 17.8339 14.5662 19.361C13.0808 20.9078 11.1829 21.7328 8.6687 21.7328C4.00865 21.7328 0.0900879 17.937 0.0900879 13.2769C0.0900879 8.61689 4.00865 4.82109 8.6687 4.82109C11.2467 4.82109 13.0832 5.83265 14.4631 7.15111L12.8328 8.7814C11.8433 7.85331 10.5028 7.13147 8.66625 7.13147C5.26328 7.13147 2.6018 9.87398 2.6018 13.2769C2.6018 16.6799 5.26328 19.4224 8.66625 19.4224C10.8735 19.4224 12.1306 18.5361 12.9359 17.7308C13.589 17.0777 14.0187 16.1447 14.1881 14.8704L8.66625 14.8728Z" fill="black" fill-opacity="0.2"/>
</g>
<g clip-path="url(#clip1_1_382)">
<path d="M110.267 16.2896C110.267 19.425 107.815 21.7353 104.804 21.7353C101.794 21.7353 99.3416 19.425 99.3416 16.2896C99.3416 13.1322 101.794 10.8439 104.804 10.8439C107.815 10.8439 110.267 13.1322 110.267 16.2896ZM107.876 16.2896C107.876 14.3303 106.454 12.9898 104.804 12.9898C103.155 12.9898 101.733 14.3303 101.733 16.2896C101.733 18.2293 103.155 19.5895 104.804 19.5895C106.454 19.5895 107.876 18.2268 107.876 16.2896Z" fill="black" fill-opacity="0.2"/>
<path d="M122.046 16.2896C122.046 19.425 119.594 21.7353 116.584 21.7353C113.573 21.7353 111.121 19.425 111.121 16.2896C111.121 13.1346 113.573 10.8439 116.584 10.8439C119.594 10.8439 122.046 13.1322 122.046 16.2896ZM119.655 16.2896C119.655 14.3303 118.233 12.9898 116.584 12.9898C114.934 12.9898 113.512 14.3303 113.512 16.2896C113.512 18.2293 114.934 19.5895 116.584 19.5895C118.233 19.5895 119.655 18.2268 119.655 16.2896Z" fill="black" fill-opacity="0.2"/>
<path d="M133.344 11.1729V20.9497C133.344 24.9714 130.972 26.6139 128.168 26.6139C125.529 26.6139 123.94 24.8486 123.341 23.4049L125.423 22.5382C125.794 23.4246 126.703 24.4705 128.166 24.4705C129.961 24.4705 131.073 23.3632 131.073 21.2787V20.4955H130.989C130.454 21.1559 129.423 21.7329 128.122 21.7329C125.399 21.7329 122.904 19.3611 122.904 16.3093C122.904 13.2353 125.399 10.8439 128.122 10.8439C129.421 10.8439 130.452 11.4209 130.989 12.0617H131.073V11.1754H133.344V11.1729ZM131.242 16.3093C131.242 14.3917 129.963 12.9898 128.335 12.9898C126.685 12.9898 125.303 14.3917 125.303 16.3093C125.303 18.2072 126.685 19.5895 128.335 19.5895C129.963 19.5895 131.242 18.2072 131.242 16.3093Z" fill="black" fill-opacity="0.2"/>
<path d="M137.084 5.44234V21.4014H134.751V5.44234H137.084Z" fill="black" fill-opacity="0.2"/>
<path d="M146.176 18.0818L148.032 19.3192C147.433 20.2056 145.99 21.7327 143.495 21.7327C140.401 21.7327 138.091 19.3413 138.091 16.287C138.091 13.0485 140.421 10.8413 143.227 10.8413C146.053 10.8413 147.436 13.0903 147.887 14.3056L148.135 14.9243L140.856 17.9394C141.413 19.032 142.28 19.5893 143.495 19.5893C144.713 19.5893 145.557 18.9902 146.176 18.0818ZM140.463 16.1225L145.329 14.1018C145.061 13.4217 144.256 12.9479 143.308 12.9479C142.093 12.9479 140.401 14.0208 140.463 16.1225Z" fill="black" fill-opacity="0.2"/>
<path d="M90.5073 14.8729V12.5625H98.2929C98.369 12.9652 98.4083 13.4415 98.4083 13.9571C98.4083 15.6905 97.9344 17.8339 96.4073 19.3611C94.9218 20.9079 93.0239 21.7328 90.5098 21.7328C85.8497 21.7328 81.9312 17.937 81.9312 13.277C81.9312 8.61695 85.8497 4.82114 90.5098 4.82114C93.0878 4.82114 94.9243 5.8327 96.3041 7.15117L94.6739 8.78145C93.6844 7.85337 92.3438 7.13153 90.5073 7.13153C87.1043 7.13153 84.4429 9.87403 84.4429 13.277C84.4429 16.68 87.1043 19.4225 90.5073 19.4225C92.7146 19.4225 93.9717 18.5361 94.777 17.7308C95.4301 17.0777 95.8597 16.1447 96.0292 14.8704L90.5073 14.8729Z" fill="black" fill-opacity="0.2"/>
</g>
<g clip-path="url(#clip2_1_382)">
<path d="M192.11 16.2896C192.11 19.425 189.657 21.7353 186.647 21.7353C183.637 21.7353 181.184 19.425 181.184 16.2896C181.184 13.1322 183.637 10.8439 186.647 10.8439C189.657 10.8439 192.11 13.1322 192.11 16.2896ZM189.719 16.2896C189.719 14.3303 188.297 12.9898 186.647 12.9898C184.997 12.9898 183.575 14.3303 183.575 16.2896C183.575 18.2293 184.997 19.5895 186.647 19.5895C188.297 19.5895 189.719 18.2268 189.719 16.2896Z" fill="black" fill-opacity="0.2"/>
<path d="M203.889 16.2896C203.889 19.425 201.436 21.7353 198.426 21.7353C195.416 21.7353 192.963 19.425 192.963 16.2896C192.963 13.1346 195.416 10.8439 198.426 10.8439C201.436 10.8439 203.889 13.1322 203.889 16.2896ZM201.498 16.2896C201.498 14.3303 200.076 12.9898 198.426 12.9898C196.776 12.9898 195.355 14.3303 195.355 16.2896C195.355 18.2293 196.776 19.5895 198.426 19.5895C200.076 19.5895 201.498 18.2268 201.498 16.2896Z" fill="black" fill-opacity="0.2"/>
<path d="M215.187 11.1729V20.9497C215.187 24.9714 212.815 26.6139 210.011 26.6139C207.372 26.6139 205.783 24.8486 205.184 23.4049L207.266 22.5382C207.637 23.4246 208.546 24.4705 210.009 24.4705C211.804 24.4705 212.916 23.3632 212.916 21.2787V20.4955H212.832C212.297 21.1559 211.266 21.7329 209.965 21.7329C207.242 21.7329 204.747 19.3611 204.747 16.3093C204.747 13.2353 207.242 10.8439 209.965 10.8439C211.264 10.8439 212.295 11.4209 212.832 12.0617H212.916V11.1754H215.187V11.1729ZM213.085 16.3093C213.085 14.3917 211.806 12.9898 210.178 12.9898C208.528 12.9898 207.146 14.3917 207.146 16.3093C207.146 18.2072 208.528 19.5895 210.178 19.5895C211.806 19.5895 213.085 18.2072 213.085 16.3093Z" fill="black" fill-opacity="0.2"/>
<path d="M218.927 5.44234V21.4014H216.594V5.44234H218.927Z" fill="black" fill-opacity="0.2"/>
<path d="M228.019 18.0818L229.875 19.3192C229.276 20.2056 227.832 21.7327 225.338 21.7327C222.244 21.7327 219.934 19.3413 219.934 16.287C219.934 13.0485 222.264 10.8413 225.07 10.8413C227.896 10.8413 229.278 13.0903 229.73 14.3056L229.978 14.9243L222.698 17.9394C223.256 19.032 224.122 19.5893 225.338 19.5893C226.556 19.5893 227.4 18.9902 228.019 18.0818ZM222.306 16.1225L227.172 14.1018C226.904 13.4217 226.099 12.9479 225.151 12.9479C223.936 12.9479 222.244 14.0208 222.306 16.1225Z" fill="black" fill-opacity="0.2"/>
<path d="M172.35 14.8729V12.5625H180.136C180.212 12.9652 180.251 13.4415 180.251 13.9571C180.251 15.6905 179.777 17.8339 178.25 19.3611C176.765 20.9079 174.867 21.7328 172.353 21.7328C167.692 21.7328 163.774 17.937 163.774 13.277C163.774 8.61695 167.692 4.82114 172.353 4.82114C174.931 4.82114 176.767 5.8327 178.147 7.15117L176.517 8.78145C175.527 7.85337 174.187 7.13153 172.35 7.13153C168.947 7.13153 166.286 9.87403 166.286 13.277C166.286 16.68 168.947 19.4225 172.35 19.4225C174.557 19.4225 175.814 18.5361 176.62 17.7308C177.273 17.0777 177.703 16.1447 177.872 14.8704L172.35 14.8729Z" fill="black" fill-opacity="0.2"/>
</g>
<defs>
<clipPath id="clip0_1_382">
<rect width="66.7826" height="22.5882" fill="white" transform="translate(0 4.70583)"/>
</clipPath>
<clipPath id="clip1_1_382">
<rect width="66.7826" height="22.5882" fill="white" transform="translate(81.8416 4.70591)"/>
</clipPath>
<clipPath id="clip2_1_382">
<rect width="66.7826" height="22.5882" fill="white" transform="translate(163.683 4.70591)"/>
</clipPath>
</defs>
</svg>
