<svg width="48" height="48" viewBox="0 0 48 48" fill="none" xmlns="http://www.w3.org/2000/svg">
<rect width="48" height="48" rx="24" fill="#E7E5E4"/>
<path opacity="0.9" d="M15.5527 33.4434C14.5306 33.4434 13.7624 33.1895 13.248 32.6816C12.7402 32.1803 12.4863 31.4284 12.4863 30.4258V18.4922C12.4863 17.4831 12.7402 16.7279 13.248 16.2266C13.7624 15.7188 14.5306 15.4648 15.5527 15.4648H32.4473C33.4759 15.4648 34.2441 15.7188 34.752 16.2266C35.2598 16.7344 35.5137 17.4896 35.5137 18.4922V30.4258C35.5137 31.4284 35.2598 32.1803 34.752 32.6816C34.2441 33.1895 33.4759 33.4434 32.4473 33.4434H15.5527ZM15.5723 31.8711H32.4277C32.9095 31.8711 33.2806 31.7441 33.541 31.4902C33.8079 31.2298 33.9414 30.8457 33.9414 30.3379V18.5801C33.9414 18.0723 33.8079 17.6882 33.541 17.4277C33.2806 17.1673 32.9095 17.0371 32.4277 17.0371H15.5723C15.084 17.0371 14.7096 17.1673 14.4492 17.4277C14.1888 17.6882 14.0586 18.0723 14.0586 18.5801V30.3379C14.0586 30.8457 14.1888 31.2298 14.4492 31.4902C14.7096 31.7441 15.084 31.8711 15.5723 31.8711ZM16.6855 29.4688V28.0039C16.6855 27.75 16.7637 27.5449 16.9199 27.3887C17.0827 27.2324 17.2943 27.1543 17.5547 27.1543H30.4746C30.735 27.1543 30.9434 27.2324 31.0996 27.3887C31.2624 27.5449 31.3438 27.75 31.3438 28.0039V29.4688C31.3438 29.7227 31.2624 29.9277 31.0996 30.084C30.9434 30.2402 30.735 30.3184 30.4746 30.3184H17.5547C17.2943 30.3184 17.0827 30.2402 16.9199 30.084C16.7637 29.9277 16.6855 29.7227 16.6855 29.4688Z" fill="#78716C"/>
</svg>
