<svg width="241" height="238" viewBox="0 0 241 238" fill="none" xmlns="http://www.w3.org/2000/svg">
<path d="M113.083 2C53.985 2 9.83334 82.4662 9.83334 154.417C9.83334 155.085 9.86284 155.724 9.90217 156.364L9.95134 157.534C10.5512 189.708 20.355 216.986 38.2812 236.417C39.2055 237.43 40.5232 238 41.89 238H184.277C185.653 238 186.961 237.43 187.895 236.417C205.821 216.986 215.625 189.708 216.225 157.534L216.274 156.364C216.304 155.724 216.333 155.085 216.333 154.417C216.333 82.4662 172.182 2 113.083 2ZM113.083 11.8333C165.465 11.8333 206.146 87.8253 206.5 153.571C206.353 153.6 206.185 153.63 206.028 153.669C204.169 154.063 202.075 154.446 199.676 154.81C199.577 154.82 199.469 154.839 199.371 154.849C198.555 154.967 197.532 155.076 196.657 155.193V134.75C196.657 132.036 194.454 129.833 191.74 129.833C189.026 129.833 186.833 132.036 186.833 134.75V156.314C185.083 156.492 183.382 156.668 181.504 156.826C181.051 156.865 180.609 156.904 180.147 156.944C179.153 157.022 178.032 157.091 177 157.17V144.583C177 141.869 174.797 139.667 172.083 139.667C169.369 139.667 167.167 141.869 167.167 144.583V157.839C163.981 158.025 160.726 158.202 157.333 158.36V134.75C157.333 132.036 155.131 129.833 152.417 129.833C149.703 129.833 147.5 132.036 147.5 134.75V158.733C146.094 158.783 144.737 158.842 143.301 158.891C142.662 158.91 142.003 158.93 141.354 158.94C140.145 158.969 138.886 158.989 137.657 159.019V144.583C137.657 141.869 135.454 139.667 132.74 139.667C130.026 139.667 127.833 141.869 127.833 144.583V159.225C127.656 159.225 127.469 159.225 127.292 159.235C124.234 159.274 121.117 159.284 118 159.304V134.75C118 132.036 115.797 129.833 113.083 129.833C110.369 129.833 108.167 132.036 108.167 134.75V159.294C105.049 159.284 101.932 159.264 98.8742 159.225C98.4907 159.215 98.0973 159.215 97.7138 159.215C93.3183 159.146 89.0212 159.058 84.8027 158.94C84.1537 158.92 83.5047 158.901 82.8557 158.891C81.4298 158.852 80.0728 158.783 78.6667 158.733V144.583C78.6667 141.869 76.464 139.667 73.75 139.667C71.036 139.667 68.8333 141.869 68.8333 144.583V158.36C65.4408 158.202 62.186 158.025 59 157.839V134.75C59 132.036 56.7973 129.833 54.0833 129.833C51.3693 129.833 49.1667 132.036 49.1667 134.75V157.17C48.144 157.091 47.023 157.022 46.02 156.944C45.5578 156.904 45.1153 156.865 44.663 156.826C42.7848 156.668 41.0837 156.492 39.3333 156.314V144.583C39.3333 141.869 37.1307 139.667 34.4167 139.667C31.7027 139.667 29.5 141.869 29.5 144.583V155.193C28.6248 155.076 27.612 154.967 26.786 154.849C26.6877 154.839 26.5795 154.82 26.4812 154.81C24.0818 154.446 21.9873 154.063 20.1288 153.669C19.9813 153.63 19.8142 153.6 19.6667 153.571C20.0207 87.8253 60.7012 11.8333 113.083 11.8333ZM127.46 195.628C126.702 197.467 124.903 198.667 122.917 198.667H103.25C101.264 198.667 99.4642 197.467 98.707 195.628C97.94 193.789 98.3628 191.675 99.769 190.269L109.602 180.436C111.52 178.518 114.637 178.518 116.554 180.436L126.388 190.269C127.804 191.685 128.227 193.789 127.46 195.628Z" fill="#B6EAFF"/>
<path d="M113.083 120C121.215 120 127.833 113.382 127.833 105.25V95.4167C127.833 87.2845 121.215 80.6667 113.083 80.6667C104.951 80.6667 98.3333 87.2845 98.3333 95.4167V105.25C98.3333 113.382 104.951 120 113.083 120ZM108.167 95.4167C108.167 92.7027 110.369 90.5 113.083 90.5C115.797 90.5 118 92.7027 118 95.4167V105.25C118 107.964 115.797 110.167 113.083 110.167C110.369 110.167 108.167 107.964 108.167 105.25V95.4167Z" fill="#B6EAFF"/>
<path d="M118.083 0C58.985 0 14.8333 80.4662 14.8333 152.417C14.8333 153.085 14.8628 153.724 14.9022 154.364L14.9513 155.534C15.5512 187.708 25.355 214.986 43.2812 234.417C44.2055 235.43 45.5232 236 46.89 236H189.277C190.653 236 191.961 235.43 192.895 234.417C210.821 214.986 220.625 187.708 221.225 155.534L221.274 154.364C221.304 153.724 221.333 153.085 221.333 152.417C221.333 80.4662 177.182 0 118.083 0ZM118.083 9.83333C170.465 9.83333 211.146 85.8253 211.5 151.571C211.352 151.6 211.185 151.63 211.028 151.669C209.169 152.063 207.075 152.446 204.676 152.81C204.577 152.82 204.469 152.839 204.371 152.849C203.555 152.967 202.532 153.075 201.657 153.193V132.75C201.657 130.036 199.454 127.833 196.74 127.833C194.026 127.833 191.833 130.036 191.833 132.75V154.314C190.083 154.491 188.382 154.668 186.504 154.826C186.051 154.865 185.609 154.904 185.147 154.944C184.153 155.022 183.032 155.091 182 155.17V142.583C182 139.869 179.797 137.667 177.083 137.667C174.369 137.667 172.167 139.869 172.167 142.583V155.839C168.981 156.025 165.726 156.202 162.333 156.36V132.75C162.333 130.036 160.131 127.833 157.417 127.833C154.703 127.833 152.5 130.036 152.5 132.75V156.733C151.094 156.783 149.737 156.842 148.301 156.891C147.662 156.91 147.003 156.93 146.354 156.94C145.145 156.969 143.886 156.989 142.657 157.019V142.583C142.657 139.869 140.454 137.667 137.74 137.667C135.026 137.667 132.833 139.869 132.833 142.583V157.225C132.656 157.225 132.469 157.225 132.292 157.235C129.234 157.274 126.117 157.284 123 157.304V132.75C123 130.036 120.797 127.833 118.083 127.833C115.369 127.833 113.167 130.036 113.167 132.75V157.294C110.049 157.284 106.932 157.264 103.874 157.225C103.491 157.215 103.097 157.215 102.714 157.215C98.3183 157.146 94.0212 157.058 89.8027 156.94C89.1537 156.92 88.5047 156.901 87.8557 156.891C86.4298 156.851 85.0728 156.783 83.6667 156.733V142.583C83.6667 139.869 81.464 137.667 78.75 137.667C76.036 137.667 73.8333 139.869 73.8333 142.583V156.36C70.4408 156.202 67.186 156.025 64 155.839V132.75C64 130.036 61.7973 127.833 59.0833 127.833C56.3693 127.833 54.1667 130.036 54.1667 132.75V155.17C53.144 155.091 52.023 155.022 51.02 154.944C50.5578 154.904 50.1153 154.865 49.663 154.826C47.7848 154.668 46.0837 154.491 44.3333 154.314V142.583C44.3333 139.869 42.1307 137.667 39.4167 137.667C36.7027 137.667 34.5 139.869 34.5 142.583V153.193C33.6248 153.075 32.612 152.967 31.786 152.849C31.6877 152.839 31.5795 152.82 31.4812 152.81C29.0818 152.446 26.9873 152.063 25.1288 151.669C24.9813 151.63 24.8142 151.6 24.6667 151.571C25.0207 85.8253 65.7012 9.83333 118.083 9.83333ZM132.46 193.628C131.702 195.467 129.903 196.667 127.917 196.667H108.25C106.264 196.667 104.464 195.467 103.707 193.628C102.94 191.789 103.363 189.675 104.769 188.269L114.602 178.436C116.52 176.518 119.637 176.518 121.554 178.436L131.388 188.269C132.804 189.685 133.227 191.789 132.46 193.628Z" fill="#006782"/>
<path d="M118.083 118C126.215 118 132.833 111.382 132.833 103.25V93.4167C132.833 85.2845 126.215 78.6667 118.083 78.6667C109.951 78.6667 103.333 85.2845 103.333 93.4167V103.25C103.333 111.382 109.951 118 118.083 118ZM113.167 93.4167C113.167 90.7027 115.369 88.5 118.083 88.5C120.797 88.5 123 90.7027 123 93.4167V103.25C123 105.964 120.797 108.167 118.083 108.167C115.369 108.167 113.167 105.964 113.167 103.25V93.4167Z" fill="#006782"/>
</svg>
