<svg width="344" height="65" viewBox="0 0 344 65" fill="none" xmlns="http://www.w3.org/2000/svg">
<path d="M9.51855 21.8857V52H4.3418V21.8857H9.51855ZM3.95215 13.8979C3.95215 13.063 4.20264 12.3579 4.70361 11.7827C5.22314 11.2075 5.98389 10.9199 6.98584 10.9199C7.96924 10.9199 8.7207 11.2075 9.24023 11.7827C9.77832 12.3579 10.0474 13.063 10.0474 13.8979C10.0474 14.6958 9.77832 15.3823 9.24023 15.9575C8.7207 16.5142 7.96924 16.7925 6.98584 16.7925C5.98389 16.7925 5.22314 16.5142 4.70361 15.9575C4.20264 15.3823 3.95215 14.6958 3.95215 13.8979ZM33.2598 36.1079H22.4331V31.7383H33.2598C35.3564 31.7383 37.0542 31.4043 38.353 30.7363C39.6519 30.0684 40.5981 29.1406 41.1919 27.9531C41.8042 26.7656 42.1104 25.4111 42.1104 23.8896C42.1104 22.498 41.8042 21.1899 41.1919 19.9653C40.5981 18.7407 39.6519 17.7573 38.353 17.0151C37.0542 16.2544 35.3564 15.874 33.2598 15.874H23.6855V52H18.314V11.4766H33.2598C36.3213 11.4766 38.9097 12.0054 41.0249 13.063C43.1401 14.1206 44.7451 15.5864 45.8398 17.4604C46.9346 19.3159 47.4819 21.4404 47.4819 23.834C47.4819 26.4316 46.9346 28.6489 45.8398 30.4858C44.7451 32.3228 43.1401 33.7236 41.0249 34.6885C38.9097 35.6348 36.3213 36.1079 33.2598 36.1079ZM51.4902 37.2769V36.6367C51.4902 34.4658 51.8057 32.4526 52.4365 30.5972C53.0674 28.7231 53.9766 27.0996 55.1641 25.7266C56.3516 24.335 57.7896 23.2588 59.478 22.498C61.1665 21.7188 63.0591 21.3291 65.1558 21.3291C67.271 21.3291 69.1729 21.7188 70.8613 22.498C72.5684 23.2588 74.0156 24.335 75.2031 25.7266C76.4092 27.0996 77.3276 28.7231 77.9585 30.5972C78.5894 32.4526 78.9048 34.4658 78.9048 36.6367V37.2769C78.9048 39.4478 78.5894 41.4609 77.9585 43.3164C77.3276 45.1719 76.4092 46.7954 75.2031 48.187C74.0156 49.5601 72.5776 50.6362 70.8892 51.4155C69.2192 52.1763 67.3267 52.5566 65.2114 52.5566C63.0962 52.5566 61.1943 52.1763 59.5059 51.4155C57.8174 50.6362 56.3701 49.5601 55.1641 48.187C53.9766 46.7954 53.0674 45.1719 52.4365 43.3164C51.8057 41.4609 51.4902 39.4478 51.4902 37.2769ZM56.6392 36.6367V37.2769C56.6392 38.7798 56.8154 40.1992 57.168 41.5352C57.5205 42.8525 58.0493 44.0215 58.7544 45.042C59.478 46.0625 60.3779 46.8696 61.4541 47.4634C62.5303 48.0386 63.7827 48.3262 65.2114 48.3262C66.6216 48.3262 67.8555 48.0386 68.9131 47.4634C69.9893 46.8696 70.8799 46.0625 71.585 45.042C72.29 44.0215 72.8188 42.8525 73.1714 41.5352C73.5425 40.1992 73.728 38.7798 73.728 37.2769V36.6367C73.728 35.1523 73.5425 33.7515 73.1714 32.4341C72.8188 31.0981 72.2808 29.9199 71.5571 28.8994C70.8521 27.8604 69.9614 27.0439 68.8853 26.4502C67.8276 25.8564 66.5845 25.5596 65.1558 25.5596C63.7456 25.5596 62.5024 25.8564 61.4263 26.4502C60.3687 27.0439 59.478 27.8604 58.7544 28.8994C58.0493 29.9199 57.5205 31.0981 57.168 32.4341C56.8154 33.7515 56.6392 35.1523 56.6392 36.6367ZM97.7197 21.8857V25.8379H81.438V21.8857H97.7197ZM86.9487 14.5659H92.0977V44.541C92.0977 45.5615 92.2554 46.3315 92.5708 46.8511C92.8862 47.3706 93.2944 47.7139 93.7954 47.8809C94.2964 48.0479 94.8345 48.1313 95.4097 48.1313C95.8364 48.1313 96.2817 48.0942 96.7456 48.02C97.228 47.9272 97.5898 47.853 97.8311 47.7974L97.8589 52C97.4507 52.1299 96.9126 52.2505 96.2446 52.3618C95.5952 52.4917 94.8066 52.5566 93.8789 52.5566C92.6172 52.5566 91.4575 52.3062 90.3999 51.8052C89.3423 51.3042 88.498 50.4692 87.8672 49.3003C87.2549 48.1128 86.9487 46.5171 86.9487 44.5132V14.5659ZM121.266 46.8511V31.3486C121.266 30.1611 121.025 29.1313 120.542 28.2593C120.079 27.3687 119.374 26.6821 118.427 26.1997C117.481 25.7173 116.312 25.4761 114.92 25.4761C113.622 25.4761 112.48 25.6987 111.497 26.144C110.532 26.5894 109.771 27.1738 109.215 27.8975C108.677 28.6211 108.408 29.4004 108.408 30.2354H103.259C103.259 29.1592 103.537 28.0923 104.094 27.0347C104.65 25.9771 105.448 25.0215 106.487 24.168C107.545 23.2959 108.807 22.6094 110.272 22.1084C111.757 21.5889 113.408 21.3291 115.227 21.3291C117.416 21.3291 119.346 21.7002 121.016 22.4424C122.704 23.1846 124.021 24.3071 124.968 25.8101C125.933 27.2944 126.415 29.1592 126.415 31.4043V45.4316C126.415 46.4336 126.499 47.5005 126.666 48.6323C126.851 49.7642 127.12 50.7383 127.473 51.5547V52H122.101C121.841 51.4062 121.637 50.6177 121.489 49.6343C121.34 48.6323 121.266 47.7046 121.266 46.8511ZM122.157 33.7422L122.212 37.3604H117.008C115.542 37.3604 114.234 37.481 113.083 37.7222C111.933 37.9448 110.968 38.2881 110.189 38.752C109.41 39.2158 108.816 39.8003 108.408 40.5054C108 41.1919 107.795 41.999 107.795 42.9268C107.795 43.873 108.009 44.7358 108.436 45.5151C108.862 46.2944 109.502 46.916 110.356 47.3799C111.228 47.8252 112.295 48.0479 113.557 48.0479C115.134 48.0479 116.525 47.7139 117.731 47.0459C118.938 46.3779 119.893 45.5615 120.598 44.5967C121.322 43.6318 121.711 42.6948 121.767 41.7856L123.966 44.2627C123.836 45.042 123.483 45.9048 122.908 46.8511C122.333 47.7974 121.563 48.7065 120.598 49.5786C119.652 50.4321 118.52 51.1465 117.203 51.7217C115.904 52.2783 114.438 52.5566 112.805 52.5566C110.764 52.5566 108.974 52.1577 107.434 51.3599C105.912 50.562 104.725 49.4951 103.871 48.1592C103.036 46.8047 102.619 45.2925 102.619 43.6226C102.619 42.0083 102.934 40.5889 103.565 39.3643C104.196 38.1211 105.105 37.0913 106.292 36.2749C107.48 35.4399 108.909 34.8091 110.579 34.3823C112.249 33.9556 114.113 33.7422 116.173 33.7422H122.157ZM146.872 21.8857V25.8379H130.59V21.8857H146.872ZM136.101 14.5659H141.25V44.541C141.25 45.5615 141.408 46.3315 141.723 46.8511C142.039 47.3706 142.447 47.7139 142.948 47.8809C143.449 48.0479 143.987 48.1313 144.562 48.1313C144.989 48.1313 145.434 48.0942 145.898 48.02C146.38 47.9272 146.742 47.853 146.983 47.7974L147.011 52C146.603 52.1299 146.065 52.2505 145.397 52.3618C144.748 52.4917 143.959 52.5566 143.031 52.5566C141.77 52.5566 140.61 52.3062 139.552 51.8052C138.495 51.3042 137.65 50.4692 137.02 49.3003C136.407 48.1128 136.101 46.5171 136.101 44.5132V14.5659ZM150.741 37.2769V36.6367C150.741 34.4658 151.057 32.4526 151.688 30.5972C152.318 28.7231 153.228 27.0996 154.415 25.7266C155.603 24.335 157.041 23.2588 158.729 22.498C160.417 21.7188 162.31 21.3291 164.407 21.3291C166.522 21.3291 168.424 21.7188 170.112 22.498C171.819 23.2588 173.267 24.335 174.454 25.7266C175.66 27.0996 176.579 28.7231 177.209 30.5972C177.84 32.4526 178.156 34.4658 178.156 36.6367V37.2769C178.156 39.4478 177.84 41.4609 177.209 43.3164C176.579 45.1719 175.66 46.7954 174.454 48.187C173.267 49.5601 171.829 50.6362 170.14 51.4155C168.47 52.1763 166.578 52.5566 164.462 52.5566C162.347 52.5566 160.445 52.1763 158.757 51.4155C157.068 50.6362 155.621 49.5601 154.415 48.187C153.228 46.7954 152.318 45.1719 151.688 43.3164C151.057 41.4609 150.741 39.4478 150.741 37.2769ZM155.89 36.6367V37.2769C155.89 38.7798 156.066 40.1992 156.419 41.5352C156.771 42.8525 157.3 44.0215 158.005 45.042C158.729 46.0625 159.629 46.8696 160.705 47.4634C161.781 48.0386 163.034 48.3262 164.462 48.3262C165.873 48.3262 167.106 48.0386 168.164 47.4634C169.24 46.8696 170.131 46.0625 170.836 45.042C171.541 44.0215 172.07 42.8525 172.422 41.5352C172.793 40.1992 172.979 38.7798 172.979 37.2769V36.6367C172.979 35.1523 172.793 33.7515 172.422 32.4341C172.07 31.0981 171.532 29.9199 170.808 28.8994C170.103 27.8604 169.212 27.0439 168.136 26.4502C167.079 25.8564 165.835 25.5596 164.407 25.5596C162.997 25.5596 161.753 25.8564 160.677 26.4502C159.62 27.0439 158.729 27.8604 158.005 28.8994C157.3 29.9199 156.771 31.0981 156.419 32.4341C156.066 33.7515 155.89 35.1523 155.89 36.6367ZM212.891 11.4766V52H207.603V11.4766H212.891ZM225.917 11.4766V15.874H194.605V11.4766H225.917ZM236.493 21.8857V52H231.316V21.8857H236.493ZM230.927 13.8979C230.927 13.063 231.177 12.3579 231.678 11.7827C232.198 11.2075 232.958 10.9199 233.96 10.9199C234.944 10.9199 235.695 11.2075 236.215 11.7827C236.753 12.3579 237.022 13.063 237.022 13.8979C237.022 14.6958 236.753 15.3823 236.215 15.9575C235.695 16.5142 234.944 16.7925 233.96 16.7925C232.958 16.7925 232.198 16.5142 231.678 15.9575C231.177 15.3823 230.927 14.6958 230.927 13.8979ZM249.63 27.8696V52H244.454V21.8857H249.352L249.63 27.8696ZM248.573 35.8018L246.179 35.7183C246.198 33.6587 246.467 31.7568 246.986 30.0127C247.506 28.25 248.276 26.7192 249.296 25.4204C250.317 24.1216 251.588 23.1196 253.109 22.4146C254.631 21.6909 256.394 21.3291 258.397 21.3291C259.808 21.3291 261.106 21.5332 262.294 21.9414C263.481 22.3311 264.511 22.9526 265.383 23.8062C266.255 24.6597 266.933 25.7544 267.415 27.0903C267.897 28.4263 268.139 30.0405 268.139 31.9331V52H262.99V32.1836C262.99 30.6064 262.721 29.3447 262.183 28.3984C261.663 27.4521 260.921 26.7656 259.956 26.3389C258.991 25.8936 257.859 25.6709 256.561 25.6709C255.039 25.6709 253.768 25.9399 252.748 26.478C251.727 27.0161 250.911 27.7583 250.298 28.7046C249.686 29.6509 249.241 30.7363 248.962 31.9609C248.703 33.167 248.573 34.4473 248.573 35.8018ZM268.083 32.9629L264.632 34.0205C264.65 32.3691 264.919 30.7827 265.439 29.2612C265.977 27.7397 266.747 26.3853 267.749 25.1978C268.77 24.0103 270.022 23.0732 271.506 22.3867C272.991 21.6816 274.688 21.3291 276.6 21.3291C278.214 21.3291 279.643 21.5425 280.886 21.9692C282.147 22.396 283.205 23.0547 284.059 23.9453C284.931 24.8174 285.589 25.9399 286.035 27.313C286.48 28.686 286.703 30.3188 286.703 32.2114V52H281.526V32.1558C281.526 30.4673 281.257 29.1592 280.719 28.2314C280.199 27.2852 279.457 26.6265 278.492 26.2554C277.546 25.8657 276.414 25.6709 275.097 25.6709C273.965 25.6709 272.963 25.8657 272.091 26.2554C271.219 26.645 270.486 27.1831 269.892 27.8696C269.298 28.5376 268.844 29.3076 268.528 30.1797C268.231 31.0518 268.083 31.9795 268.083 32.9629ZM306.742 52.5566C304.646 52.5566 302.744 52.2041 301.037 51.499C299.348 50.7754 297.892 49.7642 296.667 48.4653C295.461 47.1665 294.533 45.6265 293.884 43.8452C293.234 42.064 292.91 40.1157 292.91 38.0005V36.8315C292.91 34.3823 293.271 32.2021 293.995 30.291C294.719 28.3613 295.702 26.7285 296.945 25.3926C298.188 24.0566 299.599 23.0454 301.176 22.3589C302.753 21.6724 304.386 21.3291 306.074 21.3291C308.227 21.3291 310.082 21.7002 311.641 22.4424C313.218 23.1846 314.507 24.2236 315.509 25.5596C316.511 26.877 317.253 28.4355 317.736 30.2354C318.218 32.0166 318.459 33.9648 318.459 36.0801V38.3901H295.971V34.1875H313.311V33.7979C313.236 32.4619 312.958 31.1631 312.476 29.9014C312.012 28.6396 311.27 27.6006 310.249 26.7842C309.229 25.9678 307.837 25.5596 306.074 25.5596C304.905 25.5596 303.829 25.8101 302.846 26.311C301.862 26.7935 301.018 27.5171 300.313 28.4819C299.608 29.4468 299.061 30.625 298.671 32.0166C298.281 33.4082 298.086 35.0132 298.086 36.8315V38.0005C298.086 39.4292 298.281 40.7744 298.671 42.0361C299.079 43.2793 299.664 44.374 300.424 45.3203C301.204 46.2666 302.141 47.0088 303.235 47.5469C304.349 48.085 305.61 48.354 307.021 48.354C308.839 48.354 310.379 47.9829 311.641 47.2407C312.902 46.4985 314.006 45.5059 314.953 44.2627L318.07 46.7397C317.42 47.7231 316.595 48.6602 315.593 49.5508C314.591 50.4414 313.357 51.165 311.891 51.7217C310.444 52.2783 308.728 52.5566 306.742 52.5566ZM329.37 26.6172V52H324.221V21.8857H329.231L329.37 26.6172ZM338.777 21.7188L338.75 26.5059C338.323 26.4131 337.915 26.3574 337.525 26.3389C337.154 26.3018 336.727 26.2832 336.245 26.2832C335.057 26.2832 334.009 26.4688 333.1 26.8398C332.19 27.2109 331.42 27.7305 330.79 28.3984C330.159 29.0664 329.658 29.8643 329.287 30.792C328.934 31.7012 328.702 32.7031 328.591 33.7979L327.144 34.6328C327.144 32.8145 327.32 31.1074 327.672 29.5117C328.043 27.916 328.609 26.5059 329.37 25.2812C330.131 24.0381 331.096 23.0732 332.265 22.3867C333.452 21.6816 334.862 21.3291 336.495 21.3291C336.866 21.3291 337.293 21.3755 337.775 21.4683C338.258 21.5425 338.592 21.626 338.777 21.7188Z" fill="#A7F5A7"/>
<path d="M13.5186 20.8857V51H8.3418V20.8857H13.5186ZM7.95215 12.8979C7.95215 12.063 8.20264 11.3579 8.70361 10.7827C9.22314 10.2075 9.98389 9.91992 10.9858 9.91992C11.9692 9.91992 12.7207 10.2075 13.2402 10.7827C13.7783 11.3579 14.0474 12.063 14.0474 12.8979C14.0474 13.6958 13.7783 14.3823 13.2402 14.9575C12.7207 15.5142 11.9692 15.7925 10.9858 15.7925C9.98389 15.7925 9.22314 15.5142 8.70361 14.9575C8.20264 14.3823 7.95215 13.6958 7.95215 12.8979ZM37.2598 35.1079H26.4331V30.7383H37.2598C39.3564 30.7383 41.0542 30.4043 42.353 29.7363C43.6519 29.0684 44.5981 28.1406 45.1919 26.9531C45.8042 25.7656 46.1104 24.4111 46.1104 22.8896C46.1104 21.498 45.8042 20.1899 45.1919 18.9653C44.5981 17.7407 43.6519 16.7573 42.353 16.0151C41.0542 15.2544 39.3564 14.874 37.2598 14.874H27.6855V51H22.314V10.4766H37.2598C40.3213 10.4766 42.9097 11.0054 45.0249 12.063C47.1401 13.1206 48.7451 14.5864 49.8398 16.4604C50.9346 18.3159 51.4819 20.4404 51.4819 22.834C51.4819 25.4316 50.9346 27.6489 49.8398 29.4858C48.7451 31.3228 47.1401 32.7236 45.0249 33.6885C42.9097 34.6348 40.3213 35.1079 37.2598 35.1079ZM55.4902 36.2769V35.6367C55.4902 33.4658 55.8057 31.4526 56.4365 29.5972C57.0674 27.7231 57.9766 26.0996 59.1641 24.7266C60.3516 23.335 61.7896 22.2588 63.478 21.498C65.1665 20.7188 67.0591 20.3291 69.1558 20.3291C71.271 20.3291 73.1729 20.7188 74.8613 21.498C76.5684 22.2588 78.0156 23.335 79.2031 24.7266C80.4092 26.0996 81.3276 27.7231 81.9585 29.5972C82.5894 31.4526 82.9048 33.4658 82.9048 35.6367V36.2769C82.9048 38.4478 82.5894 40.4609 81.9585 42.3164C81.3276 44.1719 80.4092 45.7954 79.2031 47.187C78.0156 48.5601 76.5776 49.6362 74.8892 50.4155C73.2192 51.1763 71.3267 51.5566 69.2114 51.5566C67.0962 51.5566 65.1943 51.1763 63.5059 50.4155C61.8174 49.6362 60.3701 48.5601 59.1641 47.187C57.9766 45.7954 57.0674 44.1719 56.4365 42.3164C55.8057 40.4609 55.4902 38.4478 55.4902 36.2769ZM60.6392 35.6367V36.2769C60.6392 37.7798 60.8154 39.1992 61.168 40.5352C61.5205 41.8525 62.0493 43.0215 62.7544 44.042C63.478 45.0625 64.3779 45.8696 65.4541 46.4634C66.5303 47.0386 67.7827 47.3262 69.2114 47.3262C70.6216 47.3262 71.8555 47.0386 72.9131 46.4634C73.9893 45.8696 74.8799 45.0625 75.585 44.042C76.29 43.0215 76.8188 41.8525 77.1714 40.5352C77.5425 39.1992 77.728 37.7798 77.728 36.2769V35.6367C77.728 34.1523 77.5425 32.7515 77.1714 31.4341C76.8188 30.0981 76.2808 28.9199 75.5571 27.8994C74.8521 26.8604 73.9614 26.0439 72.8853 25.4502C71.8276 24.8564 70.5845 24.5596 69.1558 24.5596C67.7456 24.5596 66.5024 24.8564 65.4263 25.4502C64.3687 26.0439 63.478 26.8604 62.7544 27.8994C62.0493 28.9199 61.5205 30.0981 61.168 31.4341C60.8154 32.7515 60.6392 34.1523 60.6392 35.6367ZM101.72 20.8857V24.8379H85.438V20.8857H101.72ZM90.9487 13.5659H96.0977V43.541C96.0977 44.5615 96.2554 45.3315 96.5708 45.8511C96.8862 46.3706 97.2944 46.7139 97.7954 46.8809C98.2964 47.0479 98.8345 47.1313 99.4097 47.1313C99.8364 47.1313 100.282 47.0942 100.746 47.02C101.228 46.9272 101.59 46.853 101.831 46.7974L101.859 51C101.451 51.1299 100.913 51.2505 100.245 51.3618C99.5952 51.4917 98.8066 51.5566 97.8789 51.5566C96.6172 51.5566 95.4575 51.3062 94.3999 50.8052C93.3423 50.3042 92.498 49.4692 91.8672 48.3003C91.2549 47.1128 90.9487 45.5171 90.9487 43.5132V13.5659ZM125.266 45.8511V30.3486C125.266 29.1611 125.025 28.1313 124.542 27.2593C124.079 26.3687 123.374 25.6821 122.427 25.1997C121.481 24.7173 120.312 24.4761 118.92 24.4761C117.622 24.4761 116.48 24.6987 115.497 25.144C114.532 25.5894 113.771 26.1738 113.215 26.8975C112.677 27.6211 112.408 28.4004 112.408 29.2354H107.259C107.259 28.1592 107.537 27.0923 108.094 26.0347C108.65 24.9771 109.448 24.0215 110.487 23.168C111.545 22.2959 112.807 21.6094 114.272 21.1084C115.757 20.5889 117.408 20.3291 119.227 20.3291C121.416 20.3291 123.346 20.7002 125.016 21.4424C126.704 22.1846 128.021 23.3071 128.968 24.8101C129.933 26.2944 130.415 28.1592 130.415 30.4043V44.4316C130.415 45.4336 130.499 46.5005 130.666 47.6323C130.851 48.7642 131.12 49.7383 131.473 50.5547V51H126.101C125.841 50.4062 125.637 49.6177 125.489 48.6343C125.34 47.6323 125.266 46.7046 125.266 45.8511ZM126.157 32.7422L126.212 36.3604H121.008C119.542 36.3604 118.234 36.481 117.083 36.7222C115.933 36.9448 114.968 37.2881 114.189 37.752C113.41 38.2158 112.816 38.8003 112.408 39.5054C112 40.1919 111.795 40.999 111.795 41.9268C111.795 42.873 112.009 43.7358 112.436 44.5151C112.862 45.2944 113.502 45.916 114.356 46.3799C115.228 46.8252 116.295 47.0479 117.557 47.0479C119.134 47.0479 120.525 46.7139 121.731 46.0459C122.938 45.3779 123.893 44.5615 124.598 43.5967C125.322 42.6318 125.711 41.6948 125.767 40.7856L127.966 43.2627C127.836 44.042 127.483 44.9048 126.908 45.8511C126.333 46.7974 125.563 47.7065 124.598 48.5786C123.652 49.4321 122.52 50.1465 121.203 50.7217C119.904 51.2783 118.438 51.5566 116.805 51.5566C114.764 51.5566 112.974 51.1577 111.434 50.3599C109.912 49.562 108.725 48.4951 107.871 47.1592C107.036 45.8047 106.619 44.2925 106.619 42.6226C106.619 41.0083 106.934 39.5889 107.565 38.3643C108.196 37.1211 109.105 36.0913 110.292 35.2749C111.48 34.4399 112.909 33.8091 114.579 33.3823C116.249 32.9556 118.113 32.7422 120.173 32.7422H126.157ZM150.872 20.8857V24.8379H134.59V20.8857H150.872ZM140.101 13.5659H145.25V43.541C145.25 44.5615 145.408 45.3315 145.723 45.8511C146.039 46.3706 146.447 46.7139 146.948 46.8809C147.449 47.0479 147.987 47.1313 148.562 47.1313C148.989 47.1313 149.434 47.0942 149.898 47.02C150.38 46.9272 150.742 46.853 150.983 46.7974L151.011 51C150.603 51.1299 150.065 51.2505 149.397 51.3618C148.748 51.4917 147.959 51.5566 147.031 51.5566C145.77 51.5566 144.61 51.3062 143.552 50.8052C142.495 50.3042 141.65 49.4692 141.02 48.3003C140.407 47.1128 140.101 45.5171 140.101 43.5132V13.5659ZM154.741 36.2769V35.6367C154.741 33.4658 155.057 31.4526 155.688 29.5972C156.318 27.7231 157.228 26.0996 158.415 24.7266C159.603 23.335 161.041 22.2588 162.729 21.498C164.417 20.7188 166.31 20.3291 168.407 20.3291C170.522 20.3291 172.424 20.7188 174.112 21.498C175.819 22.2588 177.267 23.335 178.454 24.7266C179.66 26.0996 180.579 27.7231 181.209 29.5972C181.84 31.4526 182.156 33.4658 182.156 35.6367V36.2769C182.156 38.4478 181.84 40.4609 181.209 42.3164C180.579 44.1719 179.66 45.7954 178.454 47.187C177.267 48.5601 175.829 49.6362 174.14 50.4155C172.47 51.1763 170.578 51.5566 168.462 51.5566C166.347 51.5566 164.445 51.1763 162.757 50.4155C161.068 49.6362 159.621 48.5601 158.415 47.187C157.228 45.7954 156.318 44.1719 155.688 42.3164C155.057 40.4609 154.741 38.4478 154.741 36.2769ZM159.89 35.6367V36.2769C159.89 37.7798 160.066 39.1992 160.419 40.5352C160.771 41.8525 161.3 43.0215 162.005 44.042C162.729 45.0625 163.629 45.8696 164.705 46.4634C165.781 47.0386 167.034 47.3262 168.462 47.3262C169.873 47.3262 171.106 47.0386 172.164 46.4634C173.24 45.8696 174.131 45.0625 174.836 44.042C175.541 43.0215 176.07 41.8525 176.422 40.5352C176.793 39.1992 176.979 37.7798 176.979 36.2769V35.6367C176.979 34.1523 176.793 32.7515 176.422 31.4341C176.07 30.0981 175.532 28.9199 174.808 27.8994C174.103 26.8604 173.212 26.0439 172.136 25.4502C171.079 24.8564 169.835 24.5596 168.407 24.5596C166.997 24.5596 165.753 24.8564 164.677 25.4502C163.62 26.0439 162.729 26.8604 162.005 27.8994C161.3 28.9199 160.771 30.0981 160.419 31.4341C160.066 32.7515 159.89 34.1523 159.89 35.6367ZM216.891 10.4766V51H211.603V10.4766H216.891ZM229.917 10.4766V14.874H198.605V10.4766H229.917ZM240.493 20.8857V51H235.316V20.8857H240.493ZM234.927 12.8979C234.927 12.063 235.177 11.3579 235.678 10.7827C236.198 10.2075 236.958 9.91992 237.96 9.91992C238.944 9.91992 239.695 10.2075 240.215 10.7827C240.753 11.3579 241.022 12.063 241.022 12.8979C241.022 13.6958 240.753 14.3823 240.215 14.9575C239.695 15.5142 238.944 15.7925 237.96 15.7925C236.958 15.7925 236.198 15.5142 235.678 14.9575C235.177 14.3823 234.927 13.6958 234.927 12.8979ZM253.63 26.8696V51H248.454V20.8857H253.352L253.63 26.8696ZM252.573 34.8018L250.179 34.7183C250.198 32.6587 250.467 30.7568 250.986 29.0127C251.506 27.25 252.276 25.7192 253.296 24.4204C254.317 23.1216 255.588 22.1196 257.109 21.4146C258.631 20.6909 260.394 20.3291 262.397 20.3291C263.808 20.3291 265.106 20.5332 266.294 20.9414C267.481 21.3311 268.511 21.9526 269.383 22.8062C270.255 23.6597 270.933 24.7544 271.415 26.0903C271.897 27.4263 272.139 29.0405 272.139 30.9331V51H266.99V31.1836C266.99 29.6064 266.721 28.3447 266.183 27.3984C265.663 26.4521 264.921 25.7656 263.956 25.3389C262.991 24.8936 261.859 24.6709 260.561 24.6709C259.039 24.6709 257.768 24.9399 256.748 25.478C255.727 26.0161 254.911 26.7583 254.298 27.7046C253.686 28.6509 253.241 29.7363 252.962 30.9609C252.703 32.167 252.573 33.4473 252.573 34.8018ZM272.083 31.9629L268.632 33.0205C268.65 31.3691 268.919 29.7827 269.439 28.2612C269.977 26.7397 270.747 25.3853 271.749 24.1978C272.77 23.0103 274.022 22.0732 275.506 21.3867C276.991 20.6816 278.688 20.3291 280.6 20.3291C282.214 20.3291 283.643 20.5425 284.886 20.9692C286.147 21.396 287.205 22.0547 288.059 22.9453C288.931 23.8174 289.589 24.9399 290.035 26.313C290.48 27.686 290.703 29.3188 290.703 31.2114V51H285.526V31.1558C285.526 29.4673 285.257 28.1592 284.719 27.2314C284.199 26.2852 283.457 25.6265 282.492 25.2554C281.546 24.8657 280.414 24.6709 279.097 24.6709C277.965 24.6709 276.963 24.8657 276.091 25.2554C275.219 25.645 274.486 26.1831 273.892 26.8696C273.298 27.5376 272.844 28.3076 272.528 29.1797C272.231 30.0518 272.083 30.9795 272.083 31.9629ZM310.742 51.5566C308.646 51.5566 306.744 51.2041 305.037 50.499C303.348 49.7754 301.892 48.7642 300.667 47.4653C299.461 46.1665 298.533 44.6265 297.884 42.8452C297.234 41.064 296.91 39.1157 296.91 37.0005V35.8315C296.91 33.3823 297.271 31.2021 297.995 29.291C298.719 27.3613 299.702 25.7285 300.945 24.3926C302.188 23.0566 303.599 22.0454 305.176 21.3589C306.753 20.6724 308.386 20.3291 310.074 20.3291C312.227 20.3291 314.082 20.7002 315.641 21.4424C317.218 22.1846 318.507 23.2236 319.509 24.5596C320.511 25.877 321.253 27.4355 321.736 29.2354C322.218 31.0166 322.459 32.9648 322.459 35.0801V37.3901H299.971V33.1875H317.311V32.7979C317.236 31.4619 316.958 30.1631 316.476 28.9014C316.012 27.6396 315.27 26.6006 314.249 25.7842C313.229 24.9678 311.837 24.5596 310.074 24.5596C308.905 24.5596 307.829 24.8101 306.846 25.311C305.862 25.7935 305.018 26.5171 304.313 27.4819C303.608 28.4468 303.061 29.625 302.671 31.0166C302.281 32.4082 302.086 34.0132 302.086 35.8315V37.0005C302.086 38.4292 302.281 39.7744 302.671 41.0361C303.079 42.2793 303.664 43.374 304.424 44.3203C305.204 45.2666 306.141 46.0088 307.235 46.5469C308.349 47.085 309.61 47.354 311.021 47.354C312.839 47.354 314.379 46.9829 315.641 46.2407C316.902 45.4985 318.006 44.5059 318.953 43.2627L322.07 45.7397C321.42 46.7231 320.595 47.6602 319.593 48.5508C318.591 49.4414 317.357 50.165 315.891 50.7217C314.444 51.2783 312.728 51.5566 310.742 51.5566ZM333.37 25.6172V51H328.221V20.8857H333.231L333.37 25.6172ZM342.777 20.7188L342.75 25.5059C342.323 25.4131 341.915 25.3574 341.525 25.3389C341.154 25.3018 340.727 25.2832 340.245 25.2832C339.057 25.2832 338.009 25.4688 337.1 25.8398C336.19 26.2109 335.42 26.7305 334.79 27.3984C334.159 28.0664 333.658 28.8643 333.287 29.792C332.934 30.7012 332.702 31.7031 332.591 32.7979L331.144 33.6328C331.144 31.8145 331.32 30.1074 331.672 28.5117C332.043 26.916 332.609 25.5059 333.37 24.2812C334.131 23.0381 335.096 22.0732 336.265 21.3867C337.452 20.6816 338.862 20.3291 340.495 20.3291C340.866 20.3291 341.293 20.3755 341.775 20.4683C342.258 20.5425 342.592 20.626 342.777 20.7188Z" fill="#216C2E"/>
</svg>
