<svg width="24" height="28" viewBox="0 0 24 28" fill="none" xmlns="http://www.w3.org/2000/svg">
<path opacity="0.9" d="M3.19531 13.3105H1.32031C1.09245 13.3105 0.897135 13.2292 0.734375 13.0664C0.571615 12.8971 0.490234 12.6986 0.490234 12.4707C0.490234 12.2428 0.571615 12.0443 0.734375 11.875C0.897135 11.7057 1.09245 11.6211 1.32031 11.6211H3.19531C3.42318 11.6211 3.62174 11.7057 3.79102 11.875C3.9668 12.0378 4.05469 12.2363 4.05469 12.4707C4.05469 12.6986 3.9668 12.8971 3.79102 13.0664C3.62174 13.2292 3.42318 13.3105 3.19531 13.3105ZM5.19727 6.81641L3.86914 5.47852C3.70638 5.31576 3.625 5.12044 3.625 4.89258C3.625 4.66471 3.70638 4.46615 3.86914 4.29688C4.03841 4.13411 4.24023 4.05273 4.47461 4.05273C4.70898 4.05273 4.9043 4.13411 5.06055 4.29688L6.37891 5.63477C6.54167 5.79753 6.62305 5.99284 6.62305 6.2207C6.62956 6.44857 6.54818 6.64714 6.37891 6.81641C6.21615 6.97917 6.01758 7.06055 5.7832 7.06055C5.55534 7.05404 5.36003 6.97266 5.19727 6.81641ZM11.2031 3.63281V1.75781C11.2031 1.52995 11.2845 1.33138 11.4473 1.16211C11.6165 0.992839 11.8151 0.908203 12.043 0.908203C12.2708 0.908203 12.4694 0.992839 12.6387 1.16211C12.8079 1.33138 12.8926 1.52995 12.8926 1.75781V3.63281C12.8926 3.86068 12.8079 4.05924 12.6387 4.22852C12.4759 4.39128 12.2773 4.47266 12.043 4.47266C11.8151 4.47266 11.6165 4.39128 11.4473 4.22852C11.2845 4.05924 11.2031 3.86068 11.2031 3.63281ZM17.6973 5.63477L19.0352 4.29688C19.1979 4.13411 19.3932 4.05273 19.6211 4.05273C19.849 4.05273 20.0475 4.13411 20.2168 4.29688C20.3796 4.46615 20.4609 4.66471 20.4609 4.89258C20.4609 5.12044 20.3796 5.31576 20.2168 5.47852L18.8789 6.81641C18.7227 6.97917 18.5273 7.06055 18.293 7.06055C18.0651 7.06055 17.8665 6.97917 17.6973 6.81641C17.5345 6.64714 17.4531 6.44857 17.4531 6.2207C17.4531 5.99284 17.5345 5.79753 17.6973 5.63477ZM22.7461 13.3105H20.8711C20.6432 13.3105 20.4447 13.2292 20.2754 13.0664C20.1126 12.8971 20.0312 12.6986 20.0312 12.4707C20.0312 12.2363 20.1126 12.0378 20.2754 11.875C20.4447 11.7057 20.6432 11.6211 20.8711 11.6211H22.7461C22.974 11.6211 23.1725 11.7057 23.3418 11.875C23.5111 12.0443 23.5957 12.2428 23.5957 12.4707C23.5957 12.6986 23.5111 12.8971 23.3418 13.0664C23.1725 13.2292 22.974 13.3105 22.7461 13.3105ZM12.043 6.28906C12.9023 6.28906 13.7064 6.43555 14.4551 6.72852C15.2038 7.02148 15.8581 7.42839 16.418 7.94922C16.9844 8.46354 17.4238 9.06576 17.7363 9.75586C18.0553 10.446 18.2148 11.1914 18.2148 11.9922C18.2148 12.6953 18.14 13.3203 17.9902 13.8672C17.847 14.4141 17.6615 14.9479 17.4336 15.4688C17.2057 15.9896 16.9648 16.5625 16.7109 17.1875C16.457 17.806 16.2227 18.5417 16.0078 19.3945C15.793 20.2474 15.6237 21.2858 15.5 22.5098C15.487 22.679 15.4316 22.8158 15.334 22.9199C15.2428 23.0176 15.1061 23.0664 14.9238 23.0664H9.16211C8.97982 23.0664 8.83984 23.0176 8.74219 22.9199C8.65104 22.8158 8.5957 22.679 8.57617 22.5098C8.45898 21.2858 8.29297 20.2474 8.07812 19.3945C7.86328 18.5417 7.62891 17.806 7.375 17.1875C7.12109 16.5625 6.88021 15.9896 6.65234 15.4688C6.42448 14.9479 6.23893 14.4141 6.0957 13.8672C5.95247 13.3203 5.88086 12.6953 5.88086 11.9922C5.88086 11.1914 6.03711 10.446 6.34961 9.75586C6.66211 9.06576 7.09831 8.46354 7.6582 7.94922C8.22461 7.42839 8.87891 7.02148 9.62109 6.72852C10.3698 6.43555 11.1771 6.28906 12.043 6.28906ZM9.13281 25.0586C8.97656 25.0586 8.8431 25.0065 8.73242 24.9023C8.62826 24.7917 8.57617 24.6582 8.57617 24.502C8.57617 24.3392 8.62826 24.2057 8.73242 24.1016C8.8431 23.9974 8.97656 23.9453 9.13281 23.9453H14.9531C15.1159 23.9453 15.2493 23.9974 15.3535 24.1016C15.4642 24.2057 15.5195 24.3392 15.5195 24.502C15.5195 24.6582 15.4642 24.7917 15.3535 24.9023C15.2493 25.0065 15.1159 25.0586 14.9531 25.0586H9.13281ZM12.043 27.7344C11.3203 27.7344 10.6921 27.5684 10.1582 27.2363C9.63086 26.9043 9.35091 26.4714 9.31836 25.9375H14.7676C14.735 26.4714 14.4518 26.9043 13.918 27.2363C13.3841 27.5684 12.7591 27.7344 12.043 27.7344Z" fill="#78716C"/>
</svg>
